v 54.66906290751103 100.5395859172145 58.56999969482422
v 40.88082369441528 89.80461321687704 58.56999969482422
v 60.20394087434298 64.98565847097586 58.56999969482422
v 75.54891066245727 76.9326394608658 58.56999969482422
v 82.86185246077648 67.53976718969679 58.56999969482422
v 53.81633131929527 44.92608376703524 58.56999969482422
v 53.40420067514432 42.9036498000016 58.56999969482422
v 71.19884115065216 20.04789766804348 58.56999969482422
v 77.46497844440103 18.77091017189571 58.56999969482422
v 91.60342088108382 29.77853712392374 58.56999969482422
v 99.12325815113189 20.11992463588615 58.56999969482422
v 72.88348659196316 -0.3093141521406437 58.56999969482422
v 36.80927403531371 46.02504487495978 58.56999969482422
v 45.12748551793663 52.50127231789386 58.56999969482422
v 45.50697826609439 54.36354350546441 58.56999969482422
v 41.11627187431966 60.0030447425213 58.56999969482422
v 38.88503500497171 60.45775255525044 58.56999969482422
v 35.15858939017696 57.5564907388671 58.56999969482422
v 31.19721781021099 56.56610701099203 58.56999969482422
v 24.98094225170405 64.55040169481757 58.56999969482422
v 35.59545709377036 72.81443927756308 58.56999969482422
v 30.13620938764137 79.82639394840814 58.56999969482422
v 28.44304468231599 80.17144705788536 58.56999969482422
v 23.3553504285247 76.21037138476825 58.56999969482422
v 24.30974906404791 71.75646553596366 58.56999969482422
v 19.81823781920852 68.25955415725659 58.56999969482422
v 17.96306274347162 67.79574126561539 58.56999969482422
v 0.05881686456432078 90.79227252350594 58.56999969482422
v 9.258364442202833 97.95467307191012 58.56999969482422
v 17.14492391869942 87.82503607155334 58.56999969482422
v 19.28878378512076 88.27635308225837 58.56999969482422
v 23.82018882001378 91.80432417355959 58.56999969482422
v 21.9871611555408 94.15869744723605 58.56999969482422
v 29.88989775573629 100.3114527301935 58.56999969482422
v 33.56970672076551 99.56153777999884 58.56999969482422
v 37.78127767743285 102.840498824018 58.56999969482422
v 28.92690130626343 114.2132170253808 58.56999969482422
v 34.33138452700737 118.420931943687 58.56999969482422
v 36.94162714560898 117.8889858611792 58.56999969482422
v 37.81700047358697 122.1846740791353 58.56999969482422
f 2 3 4 5 6 7 8 9 10 11 12 13 14 15 16 17 18 19 20 21 22 23 24 25 26 27 28 29 30 31 32 33 34 35 36 37 38 39 40 1 
