v 2489136.359750598 7438164.526399525 64.56999999999999
v 2489134.355262015 7438163.781068379 64.56999999999999
v 2489124.176039768 7438175.672464816 64.56999999999999
v 2489124.372805362 7438176.459519077 64.56999999999999
v 2489143.148032943 7438192.531373385 64.56999999999999
v 2489143.380684186 7438193.927266693 64.56999999999999
v 2489142.207822355 7438197.081677601 64.56999999999999
v 2489113.822752235 7438230.241197415 64.56999999999999
v 2489112.728257791 7438233.184839297 64.56999999999999
v 2489124.697870567 7438243.43099327 64.56999999999999
v 2489168.075877479 7438192.756681975 64.56999999999999
v 2489167.131094776 7438190.867095444 64.56999999999999
f 2 3 4 5 6 7 8 9 10 11 12 1 
