v 2489209.029998779 7438263.910003662 59.22000122070312
v 2489210.100006104 7438264.589996338 59.22000122070312
v 2489227.190002441 7438245.240005493 59.22000122070312
v 2489214.660003662 7438234.440002441 59.22000122070312
v 2489213.179992676 7438231.940002441 59.22000122070312
v 2489231.679992676 7438209.320007324 59.22000122070312
v 2489233.740005493 7438208.660003662 59.22000122070312
v 2489248.11000061 7438219.960006714 59.22000122070312
v 2489254.479995728 7438211.130004883 59.22000122070312
v 2489226.529998779 7438187.539993286 59.22000122070312
v 2489226.779998779 7438185.179992676 59.22000122070312
v 2489244.869995117 7438162.729995728 59.22000122070312
v 2489246.330001831 7438162.300003052 59.22000122070312
v 2489252.979995728 7438167.460006714 59.22000122070312
v 2489256.190002441 7438165.690002441 59.22000122070312
v 2489264.450012207 7438172.160003662 59.22000122070312
v 2489269.320007324 7438167.990005493 59.22000122070312
v 2489271.160003662 7438163.070007324 59.22000122070312
v 2489246.029998779 7438143.149993896 59.22000122070312
v 2489240.869995117 7438150.289993286 59.22000122070312
v 2489239.279998779 7438150.970001221 59.22000122070312
v 2489208.789993286 7438187.690002441 59.22000122070312
v 2489209.220001221 7438191.229995728 59.22000122070312
v 2489208.399993896 7438192.199996948 59.22000122070312
v 2489212.380004883 7438196.009994507 59.22000122070312
v 2489214.039993286 7438194.479995728 59.22000122070312
v 2489217.669998169 7438195.369995117 59.22000122070312
v 2489218 7438197.63999939 59.22000122070312
v 2489213.5 7438203.160003662 59.22000122070312
v 2489211 7438203.910003662 59.22000122070312
v 2489204.089996338 7438199.309997559 59.22000122070312
v 2489198.539993286 7438206.190002441 59.22000122070312
v 2489201.11000061 7438209.679992676 59.22000122070312
v 2489207.369995117 7438214.779998779 59.22000122070312
v 2489207.61000061 7438216.869995117 59.22000122070312
v 2489206.690002441 7438218.080001831 59.22000122070312
v 2489207.710006714 7438220.029998779 59.22000122070312
v 2489204.070007324 7438224.410003662 59.22000122070312
v 2489202.080001831 7438224.160003662 59.22000122070312
v 2489188.210006714 7438213.11000061 59.22000122070312
v 2489172.399993896 7438233.669998169 59.22000122070312
v 2489181.470001221 7438241.169998169 59.22000122070312
v 2489189.61000061 7438230.88999939 59.22000122070312
v 2489192.429992676 7438231.399993896 59.22000122070312
v 2489195.089996338 7438233.63999939 59.22000122070312
v 2489195.589996338 7438235.850006104 59.22000122070312
v 2489194.309997559 7438237.410003662 59.22000122070312
v 2489202.600006104 7438243.449996948 59.22000122070312
v 2489205.38999939 7438241.970001221 59.22000122070312
v 2489209.740005493 7438245.429992676 59.22000122070312
v 2489209.839996338 7438247.179992676 59.22000122070312
v 2489201.259994507 7438258.510009766 59.22000122070312
v 2489201.940002441 7438259.579986572 59.22000122070312
v 2489204.410003662 7438259.660003662 59.22000122070312
v 2489206.690002441 7438262.130004883 59.22000122070312
v 2489208.399993896 7438262.440002441 59.22000122070312
f 2 3 4 5 6 7 8 9 10 11 12 13 14 15 16 17 18 19 20 21 22 23 24 25 26 27 28 29 30 31 32 33 34 35 36 37 38 39 40 41 42 43 44 45 46 47 48 49 50 51 52 53 54 55 56 1 
