v 2489195.089996338 7438233.63999939 72.10921005895469
v 2489189.61000061 7438230.88999939 72.10921005895469
v 2489181.470001221 7438241.169998169 72.10921005895469
v 2489271.160003662 7438163.070007324 68.35756142754563
v 2489269.320007324 7438167.990005493 68.35756142754563
v 2489264.450012207 7438172.160003662 68.35756142754563
v 2489256.190002441 7438165.690002441 68.35756142754563
v 2489252.979995728 7438167.460006714 68.35756142754563
v 2489246.330001831 7438162.300003052 68.35756142754563
v 2489227.190002441 7438245.240005493 70.96627132505516
v 2489188.210006714 7438213.11000061 70.81783224465453
v 2489218 7438197.63999939 70.07559566368928
v 2489217.669998169 7438195.369995117 70.78513476572695
v 2489212.380004883 7438196.009994507 69.05005556222709
v 2489208.399993896 7438192.199996948 69.26395205991258
v 2489208.789993286 7438187.690002441 70.97182486591629
v 2489248.11000061 7438219.960006714 70.75992066096531
v 2489233.740005493 7438208.660003662 70.66265879902072
v 2489246.029998779 7438143.149993896 70.90794373389605
v 2489226.529998779 7438187.539993286 70.73216117947543
v 2489254.479995728 7438211.130004883 71.08199058623464
v 2489204.070007324 7438224.410003662 70.69029789423217
v 2489207.710006714 7438220.029998779 70.71704760897546
v 2489213.179992676 7438231.940002441 70.74386755532963
v 2489209.740005493 7438245.429992676 70.71627896748454
v 2489205.38999939 7438241.970001221 70.69215043315313
v 2489201.259994507 7438258.510009766 70.89901577735567
v 2489210.100006104 7438264.589996338 70.97575458259655
v 2489172.399993896 7438233.669998169 70.66559309353933
v 2489207.369995117 7438214.779998779 70.84017952243374
v 2489198.539993286 7438206.190002441 70.98235734729387
v 2489204.089996338 7438199.309997559 71.36765090783133
v 2489211 7438203.910003662 71.01145166523942
v 2489194.309997559 7438237.410003662 70.74243082868523
v 2489202.600006104 7438243.449996948 70.85192364676935
v 2489248.122955398 7438144.809035515 72.10921005895469
v 2489216.808789901 7438183.621093369 72.10921005895469
v 2489225.52556161 7438247.124553286 72.10921005895469
v 2489186.479033442 7438215.361030173 72.10921005895469
v 2489210.395138886 7438185.770206841 72.10921005895469
v 2489249.848979575 7438217.549457387 72.10921005895469
v 2489248.122955398 7438144.809035515 72.10921005895469
v 2489253.141350461 7438212.985617003 72.10921005895469
v 2489214.053742459 7438181.394422458 72.10921005895469
v 2489183.091346798 7438219.766518641 72.10921005895469
v 2489221.884848121 7438251.246717577 72.10921005895469
v 2489203.454798788 7438260.019553097 72.10921005895469
v 2489208.018287788 7438263.158231314 72.10921005895469
v 2489174.913390242 7438235.74832864 72.10921005895469
v 2489200.098787665 7438204.257658832 72.10921005895469
v 2489203.029324893 7438200.624848138 72.10921005895469
v 2489197.298094828 7438239.587092788 72.10921005895469
v 2489199.995006256 7438241.552027663 72.10921005895469
v 2489194.664556828 7438235.696295903 72.10921005895469
v 2489251.733116978 7438147.670732815 72.10921005895469
v 2489229.790073 7438183.384224154 68.35756142754563
v 2489229.790073 7438183.384224154 68.35756142754563
v 2489251.733116978 7438147.670732815 68.35756142754563
v 2489203.935385166 7438229.561402332 72.10921005895469
v 2489203.325758936 7438223.879738284 70.27906471630818
v 2489208.312044147 7438233.121721655 72.10921005895469
v 2489184.805440551 7438217.537439906 73.35777973039504
v 2489223.727042404 7438249.160910078 73.34421789916533
v 2489213.857044882 7438232.582742637 70.32707094908756
v 2489215.349234521 7438200.014329513 68.47912248656559
v 2489232.276678072 7438203.395332913 72.10921005895469
v 2489232.980955462 7438209.519472181 70.14193190090629
v 2489228.015979912 7438199.963428895 72.10921005895469
v 2489251.486043236 7438215.280181686 73.37942245830831
v 2489212.214412544 7438183.594308551 73.39832359545004
v 2489180.412331894 7438228.732352457 72.10921005895469
v 2489184.018645884 7438224.262539389 72.10921005895469
v 2489189.75902488 7438221.562185052 73.35605370506764
v 2489175.568669264 7438229.549321133 70.64433254809548
v 2489200.069684204 7438204.293736641 72.08817116175456
v 2489200.133211458 7438204.28948753 72.10921005895469
v 2489203.065827035 7438200.654683804 72.10921005895469
v 2489203.059657661 7438200.58724643 72.08800316978905
v 2489217.23662479 7438187.646423966 73.39590644283375
v 2489189.329609703 7438217.679913547 72.10921005895469
v 2489213.231546908 7438188.054874688 72.10921005895469
v 2489216.808789901 7438183.621093369 72.10921005895469
v 2489185.843939401 7438222.000195927 72.10921005895469
v 2489188.876673254 7438213.58499012 70.79407039181784
v 2489208.718642094 7438188.515115232 70.65936601589219
v 2489216.288094976 7438178.722079135 70.54324081651838
v 2489228.995668715 7438182.742174624 68.35756142754563
v 2489224.431630589 7438189.781988228 72.10921005895469
v 2489228.995668715 7438182.742174624 68.35756142754563
v 2489216.808789901 7438183.621093369 72.10921005895469
v 2489212.214412544 7438183.594308551 73.39832359545004
v 2489217.23662479 7438187.646423966 73.39590644283375
v 2489216.288094976 7438178.722079135 70.54324081651838
v 2489251.486043236 7438215.280181686 73.37942245830831
v 2489216.698213549 7438201.108759196 68.47634158636033
v 2489194.664556828 7438235.6962959 70.61228002092356
v 2489231.837534105 7438199.576696973 73.33588352125538
v 2489204.349018845 7438233.41643072 73.35096997202982
v 2489214.037081604 7438217.145191438 72.10921005895469
v 2489207.550981796 7438217.574550708 69.96264356857824
v 2489217.713114634 7438212.626900715 72.10921005895469
v 2489232.002388382 7438199.560014099 73.3887997934025
v 2489203.935385166 7438229.561402332 72.10921005895469
v 2489232.002388382 7438199.560014099 73.3887997934025
v 2489228.015979912 7438199.963428895 72.10921005895469
v 2489231.591489229 7438195.568694009 72.10921005895469
v 2489200.44638512 7438233.849806828 72.10921005895469
v 2489256.658676407 7438151.57511765 68.35756142754563
v 2489247.312669054 7438163.06249495 68.35756142754563
v 2489203.325758936 7438223.879738284 70.27906471630818
v 2489231.167934967 7438191.454446968 70.79021079044664
v 2489204.439285595 7438233.406407063 73.37969156501573
v 2489231.818558599 7438199.411693106 73.38888826910983
v 2489231.818558599 7438199.411693106 73.38888826910983
v 2489231.837534105 7438199.576696973 73.33588352125538
v 2489231.98532014 7438199.394219607 73.33564722070473
v 2489231.837534105 7438199.576696973 73.33588352125538
v 2489204.448503206 7438233.49726128 73.35093530761246
v 2489208.312044147 7438233.121721655 72.10921005895469
v 2489232.276678072 7438203.395332913 72.10921005895469
v 2489235.826764998 7438198.991707788 72.10921005895469
v 2489204.846529264 7438237.420441299 72.10921005895469
v 2489213.857044882 7438232.582742637 70.32707094908756
v 2489232.980955462 7438209.519472181 70.14193190090629
v 2489239.626527105 7438198.593563546 70.89608072219212
v 2489205.312287021 7438242.011224966 70.65618165742472
v 2489195.505991289 7438234.398422923 70.53725026896417
v 2489215.106319444 7438245.746068656 72.10921005895469
v 2489218.97351271 7438245.29870799 73.34587421741131
v 2489219.048009594 7438245.359236074 73.34584825989027
v 2489219.416681905 7438249.243846972 72.10921005895469
v 2489203.877539879 7438236.634124581 72.10921005895469
v 2489209.083378884 7438246.442808258 70.18317373060415
v 2489219.827807929 7438253.575782379 70.73016928806244
v 2489181.029990168 7438222.447192517 70.60768926707425
v 2489204.439285595 7438233.406407063 73.37969156501573
v 2489189.75902488 7438221.562185052 73.35605370506764
v 2489184.805440551 7438217.537439906 73.35777973039504
v 2489204.439285595 7438233.406407063 73.37969156501573
v 2489223.727042404 7438249.160910078 73.34421789916533
v 2489204.448503206 7438233.49726128 73.35093530761246
v 2489204.349018845 7438233.41643072 73.35096997202982
v 2489201.241999863 7438234.495433276 72.10921005895469
v 2489181.371801328 7438222.50052858 70.68496096594987
v 2489204.448503206 7438233.49726128 73.35093530761246
v 2489204.349018845 7438233.41643072 73.35096997202982
v 2489204.864071748 7438242.248987794 70.44872748760447
v 2489205.722156421 7438261.5789972 73.35940943900678
v 2489218.980281346 7438245.365727969 73.36758358491484
v 2489218.97351271 7438245.29870799 73.34587421741131
v 2489218.587953383 7438241.480956028 72.10921005895469
v 2489218.97351271 7438245.29870799 73.34587421741131
v 2489246.71899754 7438211.433944531 73.38171680133284
v 2489242.774772925 7438211.851330627 72.10921005895469
v 2489246.337615047 7438207.486735387 72.10921005895469
v 2489246.71899754 7438211.433944531 73.38171680133284
v 2489215.106319444 7438245.746068656 72.10921005895469
v 2489218.095683665 7438236.606573433 70.5302771381395
v 2489238.388608683 7438212.315483696 70.69412240109405
v 2489245.99792921 7438203.971075744 70.97582684192996
v 2489209.083378884 7438246.442808258 70.18317373060415
v 2489270.474111732 7438164.904025669 68.35756142754563
v 2489264.785550748 7438171.872694318 68.35756142754563
v 2489218.980281346 7438245.365727969 73.36758358491484
v 2489205.722156421 7438261.5789972 73.35940943900678
v 2489219.048009594 7438245.359236074 73.34584825989027
v 2489219.048009594 7438245.359236074 73.34584825989027
v 2489222.901442612 7438244.989888097 72.10921005895469
v 2489247.156619768 7438215.380817393 72.10921005895469
v 2489246.72921778 7438211.442190616 73.38171188215614
v 2489246.72921778 7438211.442190616 73.38171188215614
v 2489250.721104079 7438211.029537361 72.10921005895469
v 2489219.416681905 7438249.243846972 72.10921005895469
v 2489226.557405319 7438244.639467466 70.9359437466706
v 2489247.610947326 7438219.567570698 70.75654286874587
v 2489253.963798344 7438210.694330334 71.07552972516635
v 2489219.827807929 7438253.575782379 70.73016928806244
v 2489218.980281346 7438245.365727969 73.36758358491484
v 2489183.950968052 7438224.217486093 72.10921005895469
v 2489189.667935875 7438221.488176009 73.35608544420667
v 2489216.667305681 7438187.187075251 73.39618045204463
v 2489189.174099831 7438217.553409562 72.10921005895469
v 2489189.667935875 7438221.488176009 73.35608544420667
v 2489216.667305681 7438187.187075251 73.39618045204463
v 2489212.657007488 7438187.592095096 72.10921005895469
v 2489216.172462998 7438183.106804367 72.10921005895469
v 2489185.749126058 7438221.923256678 72.10921005895469
v 2489200.345046288 7438203.952386832 72.28723045771032
v 2489202.740779553 7438200.982540438 72.31094400644734
v 2489188.656337515 7438213.428004344 70.8019237709866
v 2489208.764464306 7438187.985222282 70.86002917876691
v 2489215.72270677 7438179.398298023 70.93949902879552
v 2489181.029990168 7438222.447192517 70.60768926707425
v 2489180.412331894 7438228.732352457 72.10921005895469
v 2489174.913390242 7438235.74832864 72.10921005895469
v 2489181.254275691 7438222.422291484 70.67905178519803
v 2489217.811383385 7438216.89534461 73.35831043746579
v 2489218.533852762 7438225.877853676 70.5811138897309
v 2489218.136328616 7438220.935409935 72.10921005895469
v 2489203.038475371 7438203.776429602 73.17783603920653
v 2489201.53957513 7438202.471601291 73.15075555518199
v 2489214.037081604 7438217.145191438 72.10921005895469
v 2489217.811383385 7438216.89534461 73.35831043746579
v 2489216.614376196 7438216.974582697 72.96216242937102
v 2489203.378492083 7438204.07242224 73.18397908775171
v 2489207.550981796 7438217.574550708 69.96264356857824
v 2489218.061959274 7438216.585948567 73.35790978247773
v 2489222.005804538 7438216.135605947 72.10921005895469
v 2489227.713435057 7438215.483858962 70.30206089969018
v 2489201.53957513 7438202.471601291 73.15075555518199
v 2489203.038475371 7438203.776429602 73.17783603920653
v 2489216.376767886 7438215.387730534 73.41881766496438
v 2489203.378492083 7438204.07242224 73.18397908775171
v 2489218.061959274 7438216.585948567 73.35790978247773
v 2489217.713114634 7438212.626900715 72.10921005895469
v 2489217.949569279 7438215.31043129 72.9556064690982
v 2489216.698213549 7438201.108759196 68.47634158636033
v 2489215.349234521 7438200.014329513 68.47912248656559
v 2489216.698213549 7438201.108759196 68.47634158636033
v 2489215.463066863 7438200.106681996 68.47888782260654
v 2489228.805600618 7438183.035345703 68.51379779055144
v 2489203.493111816 7438234.446145607 72.75626071966728
v 2489198.682749844 7438240.595934569 72.74256217137669
v 2489207.532577509 7438217.290376559 70.05187899513723
v 2489210.519949981 7438217.378014416 70.9452198169559
v 2489217.522263612 7438210.460927019 71.42605318533792
v 2489228.164296852 7438199.948419582 72.15681803414618
v 2489205.560657557 7438234.400876869 73.35054778899135
v 2489205.344500623 7438233.410169533 73.06296563634378
v 2489231.874965068 7438199.902183179 73.23132646937351
v 2489232.418086787 7438199.89541565 73.388599720625
v 2489232.418086787 7438199.89541565 73.388599720625
v 2489232.303554494 7438199.360874578 73.23404627329408
v 2489204.54244131 7438234.423170739 73.05787581310368
v 2489205.560657557 7438234.400876869 73.35054778899135
v 2489203.384443511 7438224.426673528 70.45524038788575
v 2489194.664556828 7438235.6962959 70.4579753954532
v 2489195.359598215 7438234.624227338 70.41839594107932
v 2489227.470988112 7438200.633289958 72.10921005895469
v 2489217.522263612 7438210.460927019 71.42605318533792
v 2489205.344500623 7438233.410169533 73.06296563634378
v 2489217.867541658 7438217.593564098 73.14243614935972
v 2489203.384443511 7438224.426673528 70.45524038788575
v 2489210.519949981 7438217.378014416 70.9452198169559
v 2489215.463066863 7438200.106681996 68.47888782260654
v 2489227.999889208 7438199.950468167 72.10921005895469
v 2489218.725310841 7438216.510201304 73.14787950416746
v 2489231.874965068 7438199.902183179 73.23132646937351
v 2489228.164296852 7438199.948419582 72.15681803414618
v 2489231.684396803 7438196.471163302 72.3985354999067
v 2489231.469991342 7438195.470497583 72.10921005895469
v 2489203.68152018 7438224.133212631 70.47563998642592
v 2489207.135639422 7438220.721133918 70.71282668499869
v 2489254.168642364 7438149.601321313 68.35756142754563
v 2489203.253947597 7438223.828573827 70.28162427252403
v 2489230.486220047 7438190.879074351 70.78167826979748
v 2489229.075519027 7438184.295099535 68.8780341445114
v 2489231.549214424 7438178.803450778 68.35756142754563
v 2489201.241999863 7438234.495433276 72.10921005895469
v 2489203.139530809 7438232.433731974 73.35139140568766
v 2489230.148317072 7438198.064077534 73.38969214377961
v 2489230.461433828 7438199.715954944 72.89417169399945
v 2489216.614376196 7438216.974582697 72.96216242937102
v 2489204.23974548 7438232.398014234 73.02292336968557
v 2489198.682749844 7438240.595934569 72.74256217137669
v 2489203.493111816 7438234.446145607 72.75626071966728
v 2489203.139530809 7438232.433731974 73.35139140568766
v 2489217.949569279 7438215.31043129 72.9556064690982
v 2489216.376767886 7438215.387730534 73.41881766496438
v 2489216.376767886 7438215.387730534 73.41881766496438
v 2489230.461433828 7438199.715954944 72.89417169399945
v 2489230.148317072 7438198.064077534 73.38969214377961
v 2489231.841378654 7438197.996026056 72.88739599698728
v 2489204.23974548 7438232.398014234 73.02292336968557
v 2489232.009668857 7438197.989261743 72.83746779500601
v 2489203.493111816 7438234.446145607 72.75626071966728
v 2489203.332033249 7438233.529364154 73.02738034730496
v 2489216.614376196 7438216.974582697 72.96216242937102
v 2489217.949569279 7438215.31043129 72.9556064690982
v 2489234.464366554 7438197.890596811 72.10921005895469
v 2489203.877539879 7438236.634124581 72.10921005895469
v 2489238.596834416 7438197.724495027 70.88319282170306
v 2489204.864071748 7438242.248987794 70.44872748760447
v 2489209.203177536 7438246.428949835 70.22148334927752
v 2489208.668177423 7438247.083236945 70.22116479359148
v 2489232.954914246 7438209.293027252 70.21467357825917
v 2489208.094354031 7438217.538581188 70.14247191950805
v 2489207.830124565 7438217.299105429 70.14085716339403
v 2489216.626897799 7438205.958765114 70.14458693118442
v 2489217.165156196 7438206.408104697 70.14777661549751
v 2489233.088116727 7438209.398134025 70.21544714914518
v 2489232.954914246 7438209.293027252 70.21467357825917
v 2489209.203177536 7438246.428949835 70.22148334927752
v 2489209.130040464 7438246.370834982 70.22105756002385
v 2489230.629781507 7438212.181694591 70.21340597208673
v 2489221.914021057 7438200.580932219 70.1505537992402
v 2489221.222059639 7438200.034922623 70.14653524634006
v 2489226.837602607 7438186.07088984 70.1314961626892
v 2489207.514623937 7438217.013161726 70.13892907953642
v 2489212.530517917 7438202.539095965 70.12031204997496
v 2489221.914021057 7438200.580932219 70.1505537992402
v 2489217.165156196 7438206.408104697 70.14777661549751
v 2489208.094354031 7438217.538581188 70.14247191950805
v 2489217.975774761 7438197.473359724 70.12768250811888
v 2489215.62388307 7438195.617540312 70.11402394146819
v 2489208.584776125 7438190.063155569 70.0731444605954
v 2489207.588826471 7438218.158897067 70.14217628192729
v 2489227.3504933 7438186.49407054 70.13452261447217
v 2489251.733116979 7438147.670732816 70.12571601882861
v 2489202.014564784 7438203.843319974 72.83927116278173
v 2489201.020963133 7438203.114493383 72.77585085589996
v 2489202.414774646 7438204.136881875 72.86481604040131
v 2489218.575104019 7438211.56741114 72.10921005895469
v 2489219.059140506 7438213.927489347 72.95015833956482
v 2489219.292703085 7438215.066300098 73.35594190237637
v 2489218.209033724 7438209.782515678 71.47321216454195
v 2489219.292703085 7438215.066300098 73.35594190237637
v 2489229.630681912 7438213.312970022 70.24377791319291
v 2489223.434093913 7438214.363916661 72.10921005895469
v 2489219.957862148 7438214.95348855 73.15570120549539
v 2489215.092130333 7438204.677537029 70.13549199883336
v 2489211.280667583 7438207.369227522 72.10921005895469
v 2489216.90016285 7438203.400687613 69.19922508961679
v 2489217.446228667 7438206.063210113 70.14794098948771
v 2489209.008738073 7438208.973685308 73.2857001911937
v 2489209.008738073 7438208.973685308 73.2857001911937
v 2489216.90016285 7438203.400687613 69.19922508961679
v 2489216.21446531 7438203.884933603 69.55430493869449
v 2489206.653700868 7438260.439817487 73.35998377049272
v 2489216.266969757 7438245.611803502 72.48036674646276
v 2489205.855632891 7438261.670799699 73.28673394343292
v 2489206.653700868 7438260.439817487 73.35998377049272
v 2489218.636085591 7438241.95755405 72.26359192824353
v 2489217.333720507 7438243.966390767 73.3464455859978
v 2489241.273544089 7438207.040341715 73.38433765663461
v 2489239.739521792 7438209.406498776 72.10921005895469
v 2489242.824790366 7438204.647617477 72.10921005895469
v 2489241.273544089 7438207.040341715 73.38433765663461
v 2489217.333720507 7438243.966390767 73.3464455859978
v 2489216.266969757 7438245.611803502 72.48036674646276
v 2489238.034237222 7438212.036819815 70.69172387380775
v 2489244.230510349 7438202.479360684 70.9537053699172
v 2489218.821763081 7438241.671155263 72.10921005895469
v 2489220.577660084 7438238.962766932 70.64926651186433
v 2489270.24865436 7438162.347600368 68.35756142754563
v 2489264.076681865 7438171.867576917 68.35756142754563
v 2489216.554329554 7438248.332407171 73.36608789128685
v 2489218.484452908 7438245.3552829 73.18948101773817
v 2489207.274248019 7438262.646495356 72.51432536641629
v 2489216.554329554 7438248.332407171 73.36608789128685
v 2489270.244621589 7438165.51766335 68.35756142754563
v 2489267.795401964 7438169.295469133 68.35756142754563
v 2489240.01642951 7438212.143224294 71.21929862104612
v 2489239.39280123 7438213.105141505 70.70091917665279
v 2489218.912541191 7438244.694976917 73.15031081039903
v 2489218.677209839 7438245.057964425 73.34597746123636
v 2489242.620266064 7438208.12692918 73.38368948940007
v 2489241.087023532 7438210.491883488 72.10921005895469
v 2489244.170723819 7438205.735421202 72.10921005895469
v 2489242.620266064 7438208.12692918 73.38368948940007
v 2489218.677209839 7438245.057964425 73.34597746123636
v 2489218.484452908 7438245.3552829 73.18948101773817
v 2489245.556257247 7438203.598301223 70.97029876147492
v 2489220.164689392 7438242.763597354 72.10921005895469
v 2489221.847374833 7438240.168134404 70.71013838829889
v 2489207.572959805 7438262.185746508 72.54174231258241
v 2489208.376651108 7438262.720765746 72.10921005895469
v 2489210.501569968 7438264.135329354 70.96561681565041
v 2489201.49857351 7438258.142012902 70.87718572572152
v 2489203.759059575 7438259.646823927 72.10921005895469
v 2489206.053267297 7438261.174083539 73.35961358166495
v 2489206.053267297 7438261.174083539 73.35961358166495
v 2489206.140160827 7438261.231928772 73.31284904108237
v 2489223.437805813 7438248.925908173 73.3443186804483
v 2489224.923290323 7438246.634618359 72.10921005895469
v 2489223.437805813 7438248.925908173 73.3443186804483
v 2489247.392316753 7438211.977204557 73.38139273798878
v 2489246.874026508 7438212.776642829 72.95057357764892
v 2489247.811723971 7438211.330288708 73.0366391534475
v 2489247.392316753 7438211.977204557 73.38139273798878
v 2489222.066594627 7438251.040936772 72.23105300679617
v 2489226.194213657 7438244.674279049 71.05249869503061
v 2489245.861837294 7438214.337896959 72.10921005895469
v 2489248.939980413 7438209.590006338 72.10921005895469
v 2489250.25398365 7438207.563218304 71.02909672267562
v 2489244.206813648 7438216.890692894 70.73350233471778
v 2489226.346553787 7438244.439301577 70.92583523308907
v 2489217.64609368 7438246.648412482 73.26619114225589
v 2489217.830825611 7438246.771388973 73.36687490119945
v 2489183.950968052 7438224.217486093 72.10921005895469
v 2489202.062875101 7438236.274626294 72.75218781058804
v 2489181.254275691 7438222.422291484 70.67905178519803
v 2489181.254275691 7438222.422291484 70.67905178519803
v 2489181.118594249 7438222.331968022 70.67222973185265
v 2489216.115286394 7438245.62935038 72.43186092683432
v 2489209.698195626 7438241.357477576 72.10921005895469
v 2489204.923482685 7438238.178939656 71.86913783145505
v 2489196.633054247 7438232.659981452 71.45229567854713
v 2489196.633054245 7438232.659981454 72.10921005895469
v 2489219.273156259 7438247.731551962 72.59063839936846
v 2489183.950968052 7438224.217486093 72.10921005895469
v 2489202.062875101 7438236.274626294 72.75218781058804
v 2489200.612000172 7438235.308775353 72.10921005895469
v 2489199.449185182 7438234.534686607 71.59389054191089
v 2489217.830825611 7438246.771388973 73.36687490119945
v 2489222.723154507 7438250.028224114 72.76410406617357
v 2489219.273156259 7438247.731551962 72.59063839936846
v 2489181.371801328 7438222.50052858 70.68496096594987
v 2489184.018645884 7438224.262539389 72.10921005895469
v 2489203.438428442 7438237.19033547 72.10921005895469
v 2489199.449185182 7438234.534686607 71.59389054191089
v 2489198.710023172 7438234.042624675 71.55672552858633
v 2489216.115286394 7438245.62935038 72.43186092683432
v 2489216.213294701 7438245.694594746 72.48527803073478
v 2489222.872952779 7438250.127945187 72.77163591268321
v 2489204.04637388 7438237.595046211 71.82503686308806
v 2489204.04637388 7438237.595046211 71.82503686308806
v 2489182.447691117 7438226.135483373 72.10921005895469
v 2489200.561584329 7438238.193945771 72.74791256001578
v 2489179.63409853 7438224.262468002 70.61705514219305
v 2489195.311257532 7438234.698790559 70.42114872314592
v 2489221.249579814 7438251.965994264 71.68332587032477
v 2489219.568842197 7438250.847123179 71.59881850249026
v 2489212.379946692 7438246.0614581 71.23736134770812
v 2489201.92799142 7438239.103566268 72.10921005895469
v 2489195.311257532 7438234.698790559 70.55461445576337
v 2489216.324296963 7438248.687221588 73.34497459411899
v 2489218.620479966 7438250.215796151 72.10921005895469
v 2489219.568842197 7438250.847123179 71.59881850249026
v 2489212.379946692 7438246.0614581 71.23736134770812
v 2489213.979591932 7438247.126345795 72.10921005895469
v 2489214.891497985 7438247.733403852 72.60622283151476
v 2489216.285374305 7438248.661310682 73.36592207091368
v 2489216.285374305 7438248.661310682 73.36592207091368
v 2489205.241050713 7438241.309077832 70.87841816553409
v 2489195.311257533 7438234.69879056 72.10921005895469
v 2489182.447691117 7438226.135483373 72.10921005895469
v 2489200.561584329 7438238.193945771 72.74791256001578
v 2489199.12035647 7438237.234516908 72.10921005895469
v 2489182.486618175 7438226.16139721 72.10921005895469
v 2489194.924240933 7438234.441152675 72.10921005895469
v 2489189.603026289 7438230.898807254 72.10921005895469
v 2489204.627121959 7438240.90038398 70.84754987145774
v 2489204.627121959 7438240.90038398 70.84754987145774
v 2489209.38272768 7438259.394264894 72.70784995557713
v 2489210.495064791 7438260.134750392 72.10921005895469
v 2489212.724247781 7438261.618722886 70.90950372924074
v 2489203.308341388 7438255.350531284 70.7115914153128
v 2489205.872655567 7438257.057601421 72.10921005895469
v 2489207.949928703 7438258.44044716 73.24137852975552
v 2489208.169256914 7438258.586454478 73.36091817085604
v 2489208.169256914 7438258.586454478 73.36091817085604
v 2489181.655266349 7438240.936026986 72.10921005895469
v 2489179.253467107 7438239.337143435 72.10921005895469
v 2489196.633054245 7438232.659981454 72.10921005895469
v 2489196.633054245 7438232.659981454 72.10921005895469
v 2489228.995668715 7438182.742174624 68.35756142754563
v 2489209.444541053 7438212.89886715 72.10921005895469
v 2489207.447646279 7438215.978983182 70.46367840590622
v 2489214.886090208 7438204.505534167 70.13427101842699
v 2489214.506403792 7438205.09118256 70.4388031205969
v 2489221.324930195 7438194.573927096 72.10921005895469
v 2489218.947876181 7438198.240420848 70.13332796872858
v 2489224.431630589 7438189.781988228 72.10921005895469
v 2489251.733116978 7438147.670732815 72.10921005895469
v 2489251.733116978 7438147.670732815 68.35756142754563
v 2489231.549214424 7438178.803450778 68.35756142754563
v 2489202.64151008 7438223.392221647 70.30345325215602
v 2489200.469698041 7438226.742139308 72.10921005895469
v 2489228.805600618 7438183.035345703 68.51379779055144
v 2489226.837602607 7438186.07088984 70.1314961626892
v 2489224.431630589 7438189.781988228 72.10921005895469
v 2489197.442176784 7438231.411948094 72.10921005895469
v 2489196.633054247 7438232.659981452 71.45229567854713
v 2489195.359598215 7438234.624227338 70.41839594107932
v 2489195.311257532 7438234.698790559 70.42114872314592
v 2489195.311257533 7438234.69879056 72.10921005895469
v 2489195.505991289 7438234.398422923 70.53725026896417
v 2489195.359598215 7438234.624227338 70.41839594107932
v 2489194.664556828 7438235.6962959 70.4579753954532
v 2489194.664556828 7438235.696295903 72.10921005895469
v 2489217.115669199 7438201.066513702 68.61033988841413
v 2489196.633054247 7438232.659981452 71.45229567854713
v 2489198.973961526 7438229.049242354 73.35284285543095
v 2489222.869608579 7438192.191333524 73.39319533037587
v 2489198.973961526 7438229.049242354 73.35284285543095
v 2489222.869608579 7438192.191333524 73.39319533037587
v 2489216.74488469 7438201.638431326 68.64340232100743
v 2489215.997084305 7438202.791878157 69.24318470463224
v 2489217.756472244 7438200.078105221 69.14299554036509
v 2489217.115669199 7438201.066513702 68.61033988841413
v 2489212.423763513 7438208.303556989 72.10921005895469
v 2489216.74488469 7438201.638431326 68.64340232100743
v 2489210.914014452 7438210.632273723 73.32012263315751
v 2489210.914014452 7438210.632273723 73.32012263315751
v 2489221.671102082 7438247.49047605 73.34493427041031
v 2489223.157326817 7438245.198044474 72.10921005895469
v 2489221.671102082 7438247.49047605 73.34493427041031
v 2489220.83900741 7438248.773942849 72.66936928398522
v 2489223.318174344 7438244.949944748 71.97547310863172
v 2489220.149058357 7438249.838156732 72.10921005895469
v 2489219.559403638 7438250.747671333 71.63047828889657
v 2489244.924057413 7438211.623888851 72.80262366059698
v 2489244.089857028 7438212.910603601 72.10921005895469
v 2489247.170062465 7438208.159531949 72.10921005895469
v 2489246.502160618 7438209.189739054 72.65822673646102
v 2489248.510611255 7438206.091798646 71.00727622229711
v 2489211.924305627 7438262.524450017 70.92969884001072
v 2489212.575641416 7438261.519795272 70.98948101084767
v 2489219.517210694 7438250.81275196 71.62660565401028
v 2489219.559403638 7438250.747671333 71.63047828889657
v 2489242.420286377 7438215.485837608 70.72141040468178
v 2489245.62136189 7438210.548329562 73.38224508494284
v 2489245.62136189 7438210.548329562 73.38224508494284
v 2489224.67686432 7438242.854229522 70.84578801700611
v 2489207.580319548 7438262.174394454 72.54241781988031
v 2489208.385266012 7438262.710249258 72.10921005895469
v 2489201.505933251 7438258.130660847 70.87651230717549
v 2489203.767654888 7438259.636294397 72.10921005895469
v 2489206.061872588 7438261.163560652 73.35961888713982
v 2489206.061872588 7438261.163560652 73.35961888713982
v 2489206.147520569 7438261.220576719 73.3135245471006
v 2489210.510608879 7438264.125095131 70.96538862216693
v 2489232.948291247 7438209.23543605 70.23317379659282
v 2489214.302864749 7438237.995127245 72.10921005895469
v 2489212.81292763 7438240.293284997 73.3480208099881
v 2489236.741873494 7438203.384014308 73.38651871512394
v 2489235.205227308 7438205.754218594 72.10921005895469
v 2489238.295773121 7438200.987197406 72.10921005895469
v 2489236.741873494 7438203.384014308 73.38651871512394
v 2489212.81292763 7438240.293284997 73.3480208099881
v 2489211.391978096 7438242.485032653 72.19437332122196
v 2489216.305115999 7438234.906749103 70.44443485440499
v 2489232.948291247 7438209.23543605 70.23317379659282
v 2489239.76942014 7438198.714166364 70.89786920832675
v 2489232.728956286 7438209.573749882 70.21455039144149
v 2489211.287082363 7438242.646829375 72.10921005895469
v 2489210.070181378 7438244.523841764 71.12122651200755
v 2489209.570247021 7438245.294966938 70.71533735388189
v 2489265.689503612 7438158.7336598 68.35756142754563
v 2489259.499131273 7438168.282017243 68.35756142754563
v 2489232.165613001 7438210.442680337 70.16671775148616
v 2489248.214590977 7438212.64064726 73.38099698363312
v 2489247.053596208 7438214.431426955 72.41594160064122
v 2489249.154083061 7438211.191525025 72.60873257941458
v 2489248.214590977 7438212.64064726 73.38099698363312
v 2489227.121809373 7438245.175268349 70.96300205516729
v 2489226.775773436 7438245.709012467 71.2507142238846
v 2489246.684587624 7438215.000605292 72.10921005895469
v 2489249.761773184 7438210.254191657 72.10921005895469
v 2489251.06345102 7438208.24641497 71.03922822667288
v 2489245.036318319 7438217.542982978 70.7391167530896
v 2489208.972928592 7438246.710536533 70.22134625195272
v 2489209.151619592 7438246.434914107 70.20499597559879
v 2489201.542666382 7438258.171365634 70.90121749981985
v 2489201.550026124 7438258.160013578 70.9005440812317
v 2489203.352434263 7438255.379884016 70.73562319035305
v 2489214.512647625 7438238.165781166 72.10921005895469
v 2489213.022798455 7438240.463803258 73.34794768251808
v 2489236.95224933 7438203.553753681 73.38641746268836
v 2489235.41572495 7438205.923770081 72.10921005895469
v 2489238.506025779 7438201.157126777 72.10921005895469
v 2489236.95224933 7438203.553753681 73.38641746268836
v 2489213.022798455 7438240.463803258 73.34794768251808
v 2489211.615800267 7438242.634031614 72.20562708387874
v 2489216.50346226 7438235.095043468 70.45394384789896
v 2489233.370598143 7438209.07828173 70.40923631929792
v 2489239.976519392 7438198.88895972 70.90046131655797
v 2489211.497043257 7438242.817208703 72.10921005895469
v 2489210.29400355 7438244.67284072 71.13248027408196
v 2489209.171701406 7438246.403938842 70.22130010165385
v 2489265.901155206 7438158.901431457 68.35756142754563
v 2489259.711637043 7438168.448471356 68.35756142754563
v 2489201.303650885 7438258.540035766 70.92308749017864
v 2489209.151619592 7438246.434914107 70.20499597559879
v 2489188.69309011 7438213.720840157 70.89471956293384
v 2489188.062891462 7438213.301315396 70.92758632107716
v 2489206.940271255 7438225.86803265 72.10921005895469
v 2489208.595075273 7438226.969639675 73.00153817135595
v 2489188.907486115 7438213.863564094 70.8835381648889
v 2489209.28199336 7438227.426922701 73.37194838573431
v 2489214.246830831 7438230.732026978 70.71143640884792
v 2489211.638415951 7438228.995598901 72.10921005895469
v 2489209.805760975 7438227.775596066 73.09127654320709
v 2489209.28199336 7438227.426922701 73.37194838573431
v 2489194.39293675 7438217.515241812 70.59745538982503
v 2489204.312229077 7438224.118538633 70.69207793935568
v 2489189.61000061 7438230.88999939 72.10921005895469
v 2489195.089996338 7438233.63999939 72.10921005895469
v 2489195.089996338 7438233.63999939 59.22000122070312
v 2489189.61000061 7438230.88999939 59.22000122070312
v 2489189.603026289 7438230.898807254 72.10921005895469
v 2489189.61000061 7438230.88999939 72.10921005895469
v 2489189.61000061 7438230.88999939 59.22000122070312
v 2489189.603026289 7438230.898807254 59.22000122070312
v 2489179.253467107 7438239.337143435 72.10921005895469
v 2489181.470001221 7438241.169998169 72.10921005895469
v 2489181.470001221 7438241.169998169 59.22000122070312
v 2489179.253467107 7438239.337143435 59.22000122070312
v 2489270.474111732 7438164.904025669 68.35756142754563
v 2489271.160003662 7438163.070007324 68.35756142754563
v 2489271.160003662 7438163.070007324 59.22000122070312
v 2489270.474111732 7438164.904025669 59.22000122070312
v 2489267.795401964 7438169.295469133 68.35756142754563
v 2489269.320007324 7438167.990005493 68.35756142754563
v 2489269.320007324 7438167.990005493 59.22000122070312
v 2489267.795401964 7438169.295469133 59.22000122070312
v 2489264.076681865 7438171.867576917 68.35756142754563
v 2489264.450012207 7438172.160003662 68.35756142754563
v 2489264.450012207 7438172.160003662 59.22000122070312
v 2489264.076681865 7438171.867576917 59.22000122070312
v 2489252.979995728 7438167.460006714 68.35756142754563
v 2489256.190002441 7438165.690002441 68.35756142754563
v 2489256.190002441 7438165.690002441 59.22000122070312
v 2489252.979995728 7438167.460006714 59.22000122070312
v 2489247.312669054 7438163.06249495 68.35756142754563
v 2489252.979995728 7438167.460006714 68.35756142754563
v 2489252.979995728 7438167.460006714 59.22000122070312
v 2489247.312669054 7438163.06249495 59.22000122070312
v 2489229.790073 7438183.384224154 68.35756142754563
v 2489246.330001831 7438162.300003052 68.35756142754563
v 2489246.330001831 7438162.300003052 59.22000122070312
v 2489229.790073 7438183.384224154 59.22000122070312
v 2489226.775773436 7438245.709012467 71.2507142238846
v 2489227.190002441 7438245.240005493 70.96627132505516
v 2489227.190002441 7438245.240005493 59.22000122070312
v 2489226.775773436 7438245.709012467 59.22000122070312
v 2489188.656337515 7438213.428004344 70.8019237709866
v 2489188.210006714 7438213.11000061 70.81783224465453
v 2489188.210006714 7438213.11000061 59.22000122070312
v 2489188.656337515 7438213.428004344 59.22000122070313
v 2489217.975774761 7438197.473359724 70.12768250811888
v 2489218 7438197.63999939 70.07559566368928
v 2489218 7438197.63999939 59.22000122070312
v 2489217.975774761 7438197.473359724 59.22000122070312
v 2489215.62388307 7438195.617540312 70.11402394146819
v 2489217.669998169 7438195.369995117 70.78513476572695
v 2489217.669998169 7438195.369995117 59.22000122070312
v 2489215.62388307 7438195.617540312 59.22000122070312
v 2489208.399993896 7438192.199996948 69.26395205991258
v 2489212.380004883 7438196.009994507 69.05005556222709
v 2489212.380004883 7438196.009994507 59.22000122070312
v 2489208.399993896 7438192.199996948 59.22000122070312
v 2489208.584776125 7438190.063155569 70.0731444605954
v 2489208.399993896 7438192.199996948 69.26395205991258
v 2489208.399993896 7438192.199996948 59.22000122070312
v 2489208.584776125 7438190.063155569 59.22000122070312
v 2489210.395138886 7438185.770206841 72.10921005895469
v 2489208.789993286 7438187.690002441 70.97182486591629
v 2489208.789993286 7438187.690002441 59.22000122070312
v 2489210.395138886 7438185.770206841 59.22000122070312
v 2489247.610947326 7438219.567570698 70.75654286874587
v 2489248.11000061 7438219.960006714 70.75992066096531
v 2489248.11000061 7438219.960006714 59.22000122070312
v 2489247.610947326 7438219.567570698 59.22000122070312
v 2489233.370598143 7438209.07828173 70.40923631929792
v 2489233.740005493 7438208.660003662 70.66265879902072
v 2489233.740005493 7438208.660003662 59.22000122070312
v 2489233.370598143 7438209.07828173 59.22000122070312
v 2489248.122955398 7438144.809035515 72.10921005895469
v 2489246.029998779 7438143.149993896 70.90794373389605
v 2489246.029998779 7438143.149993896 59.22000122070313
v 2489248.122955398 7438144.809035515 59.22000122070312
v 2489230.486220047 7438190.879074351 70.78167826979748
v 2489226.529998779 7438187.539993286 70.73216117947543
v 2489226.529998779 7438187.539993286 59.22000122070312
v 2489230.486220047 7438190.879074351 59.22000122070312
v 2489253.141350461 7438212.985617003 72.10921005895469
v 2489254.479995728 7438211.130004883 71.08199058623464
v 2489254.479995728 7438211.130004883 59.22000122070312
v 2489253.141350461 7438212.985617003 59.22000122070312
v 2489204.312229077 7438224.118538633 70.69207793935568
v 2489204.070007324 7438224.410003662 70.69029789423217
v 2489204.070007324 7438224.410003662 59.22000122070312
v 2489204.312229077 7438224.118538633 59.22000122070312
v 2489207.588826471 7438218.158897067 70.14217628192729
v 2489207.710006714 7438220.029998779 70.71704760897546
v 2489207.710006714 7438220.029998779 59.22000122070312
v 2489207.588826471 7438218.158897067 59.22000122070313
v 2489213.857044882 7438232.582742637 70.32707094908756
v 2489213.179992676 7438231.940002441 70.74386755532963
v 2489213.179992676 7438231.940002441 59.22000122070312
v 2489213.857044882 7438232.582742637 59.22000122070312
v 2489209.570247021 7438245.294966938 70.71533735388189
v 2489209.740005493 7438245.429992676 70.71627896748454
v 2489209.740005493 7438245.429992676 59.22000122070312
v 2489209.570247021 7438245.294966938 59.22000122070312
v 2489205.312287021 7438242.011224966 70.65618165742472
v 2489205.38999939 7438241.970001221 70.69215043315313
v 2489205.38999939 7438241.970001221 59.22000122070312
v 2489205.312287021 7438242.011224966 59.22000122070312
v 2489201.49857351 7438258.142012902 70.87718572572152
v 2489201.259994507 7438258.510009766 70.89901577735567
v 2489201.259994507 7438258.510009766 59.22000122070312
v 2489201.49857351 7438258.142012902 59.22000122070312
v 2489208.018287788 7438263.158231314 72.10921005895469
v 2489210.100006104 7438264.589996338 70.97575458259655
v 2489210.100006104 7438264.589996338 59.22000122070312
v 2489208.018287788 7438263.158231314 59.22000122070312
v 2489175.568669264 7438229.549321133 70.64433254809548
v 2489172.399993896 7438233.669998169 70.66559309353933
v 2489172.399993896 7438233.669998169 59.22000122070312
v 2489175.568669264 7438229.549321133 59.22000122070312
v 2489198.539993286 7438206.190002441 70.98235734729387
v 2489207.369995117 7438214.779998779 70.84017952243374
v 2489207.369995117 7438214.779998779 59.22000122070312
v 2489198.539993286 7438206.190002441 59.22000122070312
v 2489200.069684204 7438204.293736641 72.08817116175456
v 2489198.539993286 7438206.190002441 70.98235734729387
v 2489198.539993286 7438206.190002441 59.22000122070312
v 2489200.069684204 7438204.293736641 59.22000122070312
v 2489211 7438203.910003662 71.01145166523942
v 2489204.089996338 7438199.309997559 71.36765090783133
v 2489204.089996338 7438199.309997559 59.22000122070312
v 2489211 7438203.910003662 59.22000122070312
v 2489212.530517917 7438202.539095965 70.12031204997496
v 2489211 7438203.910003662 71.01145166523942
v 2489211 7438203.910003662 59.22000122070312
v 2489212.530517917 7438202.539095965 59.22000122070312
v 2489194.664556828 7438235.6962959 70.4579753954532
v 2489194.309997559 7438237.410003662 70.74243082868523
v 2489194.309997559 7438237.410003662 59.22000122070312
v 2489194.664556828 7438235.6962959 59.22000122070312
v 2489199.995006256 7438241.552027663 72.10921005895469
v 2489202.600006104 7438243.449996948 70.85192364676935
v 2489202.600006104 7438243.449996948 59.22000122070312
v 2489199.995006256 7438241.552027663 59.22000122070312
v 2489251.733116978 7438147.670732815 72.10921005895469
v 2489248.122955398 7438144.809035515 72.10921005895469
v 2489248.122955398 7438144.809035515 59.22000122070312
v 2489251.733116978 7438147.670732815 59.22000122070312
v 2489223.727042404 7438249.160910078 73.34421789916533
v 2489225.52556161 7438247.124553286 72.10921005895469
v 2489225.52556161 7438247.124553286 59.22000122070312
v 2489223.727042404 7438249.160910078 59.22000122070312
v 2489188.062891462 7438213.301315396 70.92758632107716
v 2489186.479033442 7438215.361030173 72.10921005895469
v 2489186.479033442 7438215.361030173 59.22000122070312
v 2489188.062891462 7438213.301315396 59.22000122070312
v 2489212.214412544 7438183.594308551 73.39832359545004
v 2489210.395138886 7438185.770206841 72.10921005895469
v 2489210.395138886 7438185.770206841 59.22000122070312
v 2489212.214412544 7438183.594308551 59.22000122070312
v 2489248.11000061 7438219.960006714 70.75992066096531
v 2489249.848979575 7438217.549457387 72.10921005895469
v 2489249.848979575 7438217.549457387 59.22000122070312
v 2489248.11000061 7438219.960006714 59.22000122070312
v 2489251.486043236 7438215.280181686 73.37942245830831
v 2489253.141350461 7438212.985617003 72.10921005895469
v 2489253.141350461 7438212.985617003 59.22000122070312
v 2489251.486043236 7438215.280181686 59.22000122070312
v 2489215.72270677 7438179.398298023 70.93949902879552
v 2489214.053742459 7438181.394422458 72.10921005895469
v 2489214.053742459 7438181.394422458 59.22000122070312
v 2489215.72270677 7438179.398298023 59.22000122070312
v 2489184.805440551 7438217.537439906 73.35777973039504
v 2489183.091346798 7438219.766518641 72.10921005895469
v 2489183.091346798 7438219.766518641 59.22000122070312
v 2489184.805440551 7438217.537439906 59.22000122070312
v 2489221.249579814 7438251.965994264 71.68332587032477
v 2489221.884848121 7438251.246717577 72.10921005895469
v 2489221.884848121 7438251.246717577 59.22000122070312
v 2489221.249579814 7438251.965994264 59.22000122070312
v 2489201.303650885 7438258.540035766 70.92308749017864
v 2489203.454798788 7438260.019553097 72.10921005895469
v 2489203.454798788 7438260.019553097 59.22000122070312
v 2489201.303650885 7438258.540035766 59.22000122070312
v 2489207.274248019 7438262.646495356 72.51432536641629
v 2489208.018287788 7438263.158231314 72.10921005895469
v 2489208.018287788 7438263.158231314 59.22000122070312
v 2489207.274248019 7438262.646495356 59.22000122070312
v 2489172.399993896 7438233.669998169 70.66559309353933
v 2489174.913390242 7438235.74832864 72.10921005895469
v 2489174.913390242 7438235.74832864 59.22000122070312
v 2489172.399993896 7438233.669998169 59.22000122070312
v 2489200.345046288 7438203.952386832 72.28723045771032
v 2489200.098787665 7438204.257658832 72.10921005895469
v 2489200.098787665 7438204.257658832 59.22000122070312
v 2489200.345046288 7438203.952386832 59.22000122070312
v 2489203.059657661 7438200.58724643 72.08800316978905
v 2489203.029324893 7438200.624848138 72.10921005895469
v 2489203.029324893 7438200.624848138 59.22000122070312
v 2489203.059657661 7438200.58724643 59.22000122070313
v 2489194.309997559 7438237.410003662 70.74243082868523
v 2489197.298094828 7438239.587092788 72.10921005895469
v 2489197.298094828 7438239.587092788 59.22000122070312
v 2489194.309997559 7438237.410003662 59.22000122070312
v 2489198.682749844 7438240.595934569 72.74256217137669
v 2489199.995006256 7438241.552027663 72.10921005895469
v 2489199.995006256 7438241.552027663 59.22000122070312
v 2489198.682749844 7438240.595934569 59.22000122070312
v 2489229.075519027 7438184.295099535 68.8780341445114
v 2489229.790073 7438183.384224154 68.35756142754563
v 2489229.790073 7438183.384224154 59.22000122070312
v 2489229.075519027 7438184.295099535 59.22000122070312
v 2489203.68152018 7438224.133212631 70.47563998642592
v 2489203.325758936 7438223.879738284 70.27906471630818
v 2489203.325758936 7438223.879738284 59.22000122070312
v 2489203.68152018 7438224.133212631 59.22000122070312
v 2489222.872952779 7438250.127945187 72.77163591268321
v 2489223.727042404 7438249.160910078 73.34421789916533
v 2489223.727042404 7438249.160910078 59.22000122070312
v 2489222.872952779 7438250.127945187 59.22000122070312
v 2489232.165613001 7438210.442680337 70.16671775148616
v 2489232.980955462 7438209.519472181 70.14193190090629
v 2489232.980955462 7438209.519472181 59.22000122070312
v 2489232.165613001 7438210.442680337 59.22000122070312
v 2489214.053742459 7438181.394422458 72.10921005895469
v 2489212.214412544 7438183.594308551 73.39832359545004
v 2489212.214412544 7438183.594308551 59.22000122070312
v 2489214.053742459 7438181.394422458 59.22000122070312
v 2489179.63409853 7438224.262468002 70.61705514219305
v 2489175.568669264 7438229.549321133 70.64433254809548
v 2489175.568669264 7438229.549321133 59.22000122070312
v 2489179.63409853 7438224.262468002 59.22000122070313
v 2489200.098787665 7438204.257658832 72.10921005895469
v 2489200.069684204 7438204.293736641 72.08817116175456
v 2489200.069684204 7438204.293736641 59.22000122070312
v 2489200.098787665 7438204.257658832 59.22000122070312
v 2489204.089996338 7438199.309997559 71.36765090783133
v 2489203.059657661 7438200.58724643 72.08800316978905
v 2489203.059657661 7438200.58724643 59.22000122070313
v 2489204.089996338 7438199.309997559 59.22000122070312
v 2489194.39293675 7438217.515241812 70.59745538982503
v 2489188.876673254 7438213.58499012 70.79407039181784
v 2489188.876673254 7438213.58499012 59.22000122070312
v 2489194.39293675 7438217.515241812 59.22000122070312
v 2489208.764464306 7438187.985222282 70.86002917876691
v 2489208.718642094 7438188.515115232 70.65936601589219
v 2489208.718642094 7438188.515115232 59.22000122070312
v 2489208.764464306 7438187.985222282 59.22000122070312
v 2489246.029998779 7438143.149993896 70.90794373389605
v 2489216.288094976 7438178.722079135 70.54324081651838
v 2489216.288094976 7438178.722079135 59.22000122070312
v 2489246.029998779 7438143.149993896 59.22000122070313
v 2489249.848979575 7438217.549457387 72.10921005895469
v 2489251.486043236 7438215.280181686 73.37942245830831
v 2489251.486043236 7438215.280181686 59.22000122070312
v 2489249.848979575 7438217.549457387 59.22000122070312
v 2489207.532577509 7438217.290376559 70.05187899513723
v 2489207.550981796 7438217.574550708 69.96264356857824
v 2489207.550981796 7438217.574550708 59.22000122070312
v 2489207.532577509 7438217.290376559 59.22000122070312
v 2489265.689503612 7438158.7336598 68.35756142754563
v 2489256.658676407 7438151.57511765 68.35756142754563
v 2489256.658676407 7438151.57511765 59.22000122070312
v 2489265.689503612 7438158.7336598 59.22000122070312
v 2489246.330001831 7438162.300003052 68.35756142754563
v 2489247.312669054 7438163.06249495 68.35756142754563
v 2489247.312669054 7438163.06249495 59.22000122070312
v 2489246.330001831 7438162.300003052 59.22000122070312
v 2489238.596834416 7438197.724495027 70.88319282170306
v 2489231.167934967 7438191.454446968 70.79021079044664
v 2489231.167934967 7438191.454446968 59.22000122070312
v 2489238.596834416 7438197.724495027 59.22000122070312
v 2489216.305115999 7438234.906749103 70.44443485440499
v 2489213.857044882 7438232.582742637 70.32707094908756
v 2489213.857044882 7438232.582742637 59.22000122070312
v 2489216.305115999 7438234.906749103 59.22000122070312
v 2489239.76942014 7438198.714166364 70.89786920832675
v 2489239.626527105 7438198.593563546 70.89608072219212
v 2489239.626527105 7438198.593563546 59.22000122070312
v 2489239.76942014 7438198.714166364 59.22000122070312
v 2489204.864071748 7438242.248987794 70.44872748760447
v 2489205.312287021 7438242.011224966 70.65618165742472
v 2489205.312287021 7438242.011224966 59.22000122070312
v 2489204.864071748 7438242.248987794 59.22000122070312
v 2489212.724247781 7438261.618722886 70.90950372924074
v 2489219.827807929 7438253.575782379 70.73016928806244
v 2489219.827807929 7438253.575782379 59.22000122070312
v 2489212.724247781 7438261.618722886 59.22000122070313
v 2489186.479033442 7438215.361030173 72.10921005895469
v 2489184.805440551 7438217.537439906 73.35777973039504
v 2489184.805440551 7438217.537439906 59.22000122070312
v 2489186.479033442 7438215.361030173 59.22000122070312
v 2489202.600006104 7438243.449996948 70.85192364676935
v 2489204.864071748 7438242.248987794 70.44872748760447
v 2489204.864071748 7438242.248987794 59.22000122070312
v 2489202.600006104 7438243.449996948 59.22000122070312
v 2489220.577660084 7438238.962766932 70.64926651186433
v 2489218.095683665 7438236.606573433 70.5302771381395
v 2489218.095683665 7438236.606573433 59.22000122070312
v 2489220.577660084 7438238.962766932 59.22000122070312
v 2489238.034237222 7438212.036819815 70.69172387380775
v 2489238.388608683 7438212.315483696 70.69412240109405
v 2489238.388608683 7438212.315483696 59.22000122070313
v 2489238.034237222 7438212.036819815 59.22000122070312
v 2489248.510611255 7438206.091798646 71.00727622229711
v 2489245.99792921 7438203.971075744 70.97582684192996
v 2489245.99792921 7438203.971075744 59.22000122070312
v 2489248.510611255 7438206.091798646 59.22000122070312
v 2489209.130040464 7438246.370834982 70.22105756002385
v 2489209.083378884 7438246.442808258 70.18317373060415
v 2489209.083378884 7438246.442808258 59.22000122070312
v 2489209.130040464 7438246.370834982 59.22000122070312
v 2489270.244621589 7438165.51766335 68.35756142754563
v 2489270.474111732 7438164.904025669 68.35756142754563
v 2489270.474111732 7438164.904025669 59.22000122070312
v 2489270.244621589 7438165.51766335 59.22000122070312
v 2489264.450012207 7438172.160003662 68.35756142754563
v 2489264.785550748 7438171.872694318 68.35756142754563
v 2489264.785550748 7438171.872694318 59.22000122070312
v 2489264.450012207 7438172.160003662 59.22000122070312
v 2489203.454798788 7438260.019553097 72.10921005895469
v 2489205.722156421 7438261.5789972 73.35940943900678
v 2489205.722156421 7438261.5789972 59.22000122070312
v 2489203.454798788 7438260.019553097 59.22000122070312
v 2489227.121809373 7438245.175268349 70.96300205516729
v 2489226.557405319 7438244.639467466 70.9359437466706
v 2489226.557405319 7438244.639467466 59.22000122070312
v 2489227.121809373 7438245.175268349 59.22000122070312
v 2489245.036318319 7438217.542982978 70.7391167530896
v 2489247.610947326 7438219.567570698 70.75654286874587
v 2489247.610947326 7438219.567570698 59.22000122070312
v 2489245.036318319 7438217.542982978 59.22000122070312
v 2489254.479995728 7438211.130004883 71.08199058623464
v 2489253.963798344 7438210.694330334 71.07552972516635
v 2489253.963798344 7438210.694330334 59.22000122070312
v 2489254.479995728 7438211.130004883 59.22000122070312
v 2489201.020963133 7438203.114493383 72.77585085589996
v 2489200.345046288 7438203.952386832 72.28723045771032
v 2489200.345046288 7438203.952386832 59.22000122070312
v 2489201.020963133 7438203.114493383 59.22000122070312
v 2489203.029324893 7438200.624848138 72.10921005895469
v 2489202.740779553 7438200.982540438 72.31094400644734
v 2489202.740779553 7438200.982540438 59.22000122070312
v 2489203.029324893 7438200.624848138 59.22000122070312
v 2489188.876673254 7438213.58499012 70.79407039181784
v 2489188.656337515 7438213.428004344 70.8019237709866
v 2489188.656337515 7438213.428004344 59.22000122070313
v 2489188.876673254 7438213.58499012 59.22000122070312
v 2489208.789993286 7438187.690002441 70.97182486591629
v 2489208.764464306 7438187.985222282 70.86002917876691
v 2489208.764464306 7438187.985222282 59.22000122070312
v 2489208.789993286 7438187.690002441 59.22000122070312
v 2489216.288094976 7438178.722079135 70.54324081651838
v 2489215.72270677 7438179.398298023 70.93949902879552
v 2489215.72270677 7438179.398298023 59.22000122070312
v 2489216.288094976 7438178.722079135 59.22000122070312
v 2489181.118594249 7438222.331968022 70.67222973185265
v 2489181.029990168 7438222.447192517 70.60768926707425
v 2489181.029990168 7438222.447192517 59.22000122070312
v 2489181.118594249 7438222.331968022 59.22000122070312
v 2489214.246830831 7438230.732026978 70.71143640884792
v 2489218.533852762 7438225.877853676 70.5811138897309
v 2489218.533852762 7438225.877853676 59.22000122070312
v 2489214.246830831 7438230.732026978 59.22000122070313
v 2489202.740779553 7438200.982540438 72.31094400644734
v 2489201.53957513 7438202.471601291 73.15075555518199
v 2489201.53957513 7438202.471601291 59.22000122070312
v 2489202.740779553 7438200.982540438 59.22000122070312
v 2489218.533852762 7438225.877853676 70.5811138897309
v 2489227.713435057 7438215.483858962 70.30206089969018
v 2489227.713435057 7438215.483858962 59.22000122070312
v 2489218.533852762 7438225.877853676 59.22000122070312
v 2489218 7438197.63999939 70.07559566368928
v 2489215.349234521 7438200.014329513 68.47912248656559
v 2489215.349234521 7438200.014329513 59.22000122070312
v 2489218 7438197.63999939 59.22000122070312
v 2489207.514623937 7438217.013161726 70.13892907953642
v 2489207.532577509 7438217.290376559 70.05187899513723
v 2489207.532577509 7438217.290376559 59.22000122070312
v 2489207.514623937 7438217.013161726 59.22000122070312
v 2489204.070007324 7438224.410003662 70.69029789423217
v 2489203.68152018 7438224.133212631 70.47563998642592
v 2489203.68152018 7438224.133212631 59.22000122070312
v 2489204.070007324 7438224.410003662 59.22000122070312
v 2489207.710006714 7438220.029998779 70.71704760897546
v 2489207.135639422 7438220.721133918 70.71282668499869
v 2489207.135639422 7438220.721133918 59.22000122070312
v 2489207.710006714 7438220.029998779 59.22000122070312
v 2489256.658676407 7438151.57511765 68.35756142754563
v 2489254.168642364 7438149.601321313 68.35756142754563
v 2489254.168642364 7438149.601321313 59.22000122070312
v 2489256.658676407 7438151.57511765 59.22000122070312
v 2489203.325758936 7438223.879738284 70.27906471630818
v 2489203.253947597 7438223.828573827 70.28162427252403
v 2489203.253947597 7438223.828573827 59.22000122070312
v 2489203.325758936 7438223.879738284 59.22000122070312
v 2489231.167934967 7438191.454446968 70.79021079044664
v 2489230.486220047 7438190.879074351 70.78167826979748
v 2489230.486220047 7438190.879074351 59.22000122070312
v 2489231.167934967 7438191.454446968 59.22000122070312
v 2489227.3504933 7438186.49407054 70.13452261447217
v 2489229.075519027 7438184.295099535 68.8780341445114
v 2489229.075519027 7438184.295099535 59.22000122070312
v 2489227.3504933 7438186.49407054 59.22000122070312
v 2489197.298094828 7438239.587092788 72.10921005895469
v 2489198.682749844 7438240.595934569 72.74256217137669
v 2489198.682749844 7438240.595934569 59.22000122070312
v 2489197.298094828 7438239.587092788 59.22000122070312
v 2489239.626527105 7438198.593563546 70.89608072219212
v 2489238.596834416 7438197.724495027 70.88319282170306
v 2489238.596834416 7438197.724495027 59.22000122070312
v 2489239.626527105 7438198.593563546 59.22000122070312
v 2489209.083378884 7438246.442808258 70.18317373060415
v 2489208.668177423 7438247.083236945 70.22116479359148
v 2489208.668177423 7438247.083236945 59.22000122070312
v 2489209.083378884 7438246.442808258 59.22000122070312
v 2489232.980955462 7438209.519472181 70.14193190090629
v 2489233.088116727 7438209.398134025 70.21544714914518
v 2489233.088116727 7438209.398134025 59.22000122070313
v 2489232.980955462 7438209.519472181 59.22000122070312
v 2489209.740005493 7438245.429992676 70.71627896748454
v 2489209.130040464 7438246.370834982 70.22105756002385
v 2489209.130040464 7438246.370834982 59.22000122070312
v 2489209.740005493 7438245.429992676 59.22000122070312
v 2489229.630681912 7438213.312970022 70.24377791319291
v 2489230.629781507 7438212.181694591 70.21340597208673
v 2489230.629781507 7438212.181694591 59.22000122070313
v 2489229.630681912 7438213.312970022 59.22000122070312
v 2489207.447646279 7438215.978983182 70.46367840590622
v 2489207.514623937 7438217.013161726 70.13892907953642
v 2489207.514623937 7438217.013161726 59.22000122070312
v 2489207.447646279 7438215.978983182 59.22000122070312
v 2489215.349234521 7438200.014329513 68.47912248656559
v 2489212.530517917 7438202.539095965 70.12031204997496
v 2489212.530517917 7438202.539095965 59.22000122070312
v 2489215.349234521 7438200.014329513 59.22000122070312
v 2489217.669998169 7438195.369995117 70.78513476572695
v 2489217.975774761 7438197.473359724 70.12768250811888
v 2489217.975774761 7438197.473359724 59.22000122070312
v 2489217.669998169 7438195.369995117 59.22000122070312
v 2489212.380004883 7438196.009994507 69.05005556222709
v 2489215.62388307 7438195.617540312 70.11402394146819
v 2489215.62388307 7438195.617540312 59.22000122070312
v 2489212.380004883 7438196.009994507 59.22000122070312
v 2489208.718642094 7438188.515115232 70.65936601589219
v 2489208.584776125 7438190.063155569 70.0731444605954
v 2489208.584776125 7438190.063155569 59.22000122070312
v 2489208.718642094 7438188.515115232 59.22000122070312
v 2489207.550981796 7438217.574550708 69.96264356857824
v 2489207.588826471 7438218.158897067 70.14217628192729
v 2489207.588826471 7438218.158897067 59.22000122070313
v 2489207.550981796 7438217.574550708 59.22000122070312
v 2489226.529998779 7438187.539993286 70.73216117947543
v 2489227.3504933 7438186.49407054 70.13452261447217
v 2489227.3504933 7438186.49407054 59.22000122070312
v 2489226.529998779 7438187.539993286 59.22000122070312
v 2489201.53957513 7438202.471601291 73.15075555518199
v 2489201.020963133 7438203.114493383 72.77585085589996
v 2489201.020963133 7438203.114493383 59.22000122070312
v 2489201.53957513 7438202.471601291 59.22000122070312
v 2489227.713435057 7438215.483858962 70.30206089969018
v 2489229.630681912 7438213.312970022 70.24377791319291
v 2489229.630681912 7438213.312970022 59.22000122070312
v 2489227.713435057 7438215.483858962 59.22000122070312
v 2489205.722156421 7438261.5789972 73.35940943900678
v 2489205.855632891 7438261.670799699 73.28673394343292
v 2489205.855632891 7438261.670799699 59.22000122070312
v 2489205.722156421 7438261.5789972 59.22000122070312
v 2489233.740005493 7438208.660003662 70.66265879902072
v 2489238.034237222 7438212.036819815 70.69172387380775
v 2489238.034237222 7438212.036819815 59.22000122070312
v 2489233.740005493 7438208.660003662 59.22000122070312
v 2489245.556257247 7438203.598301223 70.97029876147492
v 2489244.230510349 7438202.479360684 70.9537053699172
v 2489244.230510349 7438202.479360684 59.22000122070313
v 2489245.556257247 7438203.598301223 59.22000122070312
v 2489221.847374833 7438240.168134404 70.71013838829889
v 2489220.577660084 7438238.962766932 70.64926651186433
v 2489220.577660084 7438238.962766932 59.22000122070312
v 2489221.847374833 7438240.168134404 59.22000122070312
v 2489271.160003662 7438163.070007324 68.35756142754563
v 2489270.24865436 7438162.347600368 68.35756142754563
v 2489270.24865436 7438162.347600368 59.22000122070312
v 2489271.160003662 7438163.070007324 59.22000122070312
v 2489259.711637043 7438168.448471356 68.35756142754563
v 2489264.076681865 7438171.867576917 68.35756142754563
v 2489264.076681865 7438171.867576917 59.22000122070312
v 2489259.711637043 7438168.448471356 59.22000122070312
v 2489205.855632891 7438261.670799699 73.28673394343292
v 2489207.274248019 7438262.646495356 72.51432536641629
v 2489207.274248019 7438262.646495356 59.22000122070312
v 2489205.855632891 7438261.670799699 59.22000122070312
v 2489269.320007324 7438167.990005493 68.35756142754563
v 2489270.244621589 7438165.51766335 68.35756142754563
v 2489270.244621589 7438165.51766335 59.22000122070312
v 2489269.320007324 7438167.990005493 59.22000122070312
v 2489264.785550748 7438171.872694318 68.35756142754563
v 2489267.795401964 7438169.295469133 68.35756142754563
v 2489267.795401964 7438169.295469133 59.22000122070312
v 2489264.785550748 7438171.872694318 59.22000122070312
v 2489238.388608683 7438212.315483696 70.69412240109405
v 2489239.39280123 7438213.105141505 70.70091917665279
v 2489239.39280123 7438213.105141505 59.22000122070312
v 2489238.388608683 7438212.315483696 59.22000122070313
v 2489245.99792921 7438203.971075744 70.97582684192996
v 2489245.556257247 7438203.598301223 70.97029876147492
v 2489245.556257247 7438203.598301223 59.22000122070312
v 2489245.99792921 7438203.971075744 59.22000122070312
v 2489224.67686432 7438242.854229522 70.84578801700611
v 2489221.847374833 7438240.168134404 70.71013838829889
v 2489221.847374833 7438240.168134404 59.22000122070312
v 2489224.67686432 7438242.854229522 59.22000122070312
v 2489210.100006104 7438264.589996338 70.97575458259655
v 2489210.501569968 7438264.135329354 70.96561681565041
v 2489210.501569968 7438264.135329354 59.22000122070312
v 2489210.100006104 7438264.589996338 59.22000122070312
v 2489201.505933251 7438258.130660847 70.87651230717549
v 2489201.49857351 7438258.142012902 70.87718572572152
v 2489201.49857351 7438258.142012902 59.22000122070312
v 2489201.505933251 7438258.130660847 59.22000122070312
v 2489221.884848121 7438251.246717577 72.10921005895469
v 2489222.066594627 7438251.040936772 72.23105300679617
v 2489222.066594627 7438251.040936772 59.22000122070313
v 2489221.884848121 7438251.246717577 59.22000122070312
v 2489251.06345102 7438208.24641497 71.03922822667288
v 2489250.25398365 7438207.563218304 71.02909672267562
v 2489250.25398365 7438207.563218304 59.22000122070313
v 2489251.06345102 7438208.24641497 59.22000122070312
v 2489242.420286377 7438215.485837608 70.72141040468178
v 2489244.206813648 7438216.890692894 70.73350233471778
v 2489244.206813648 7438216.890692894 59.22000122070312
v 2489242.420286377 7438215.485837608 59.22000122070312
v 2489226.557405319 7438244.639467466 70.9359437466706
v 2489226.346553787 7438244.439301577 70.92583523308907
v 2489226.346553787 7438244.439301577 59.22000122070312
v 2489226.557405319 7438244.639467466 59.22000122070312
v 2489183.091346798 7438219.766518641 72.10921005895469
v 2489181.118594249 7438222.331968022 70.67222973185265
v 2489181.118594249 7438222.331968022 59.22000122070312
v 2489183.091346798 7438219.766518641 59.22000122070312
v 2489222.066594627 7438251.040936772 72.23105300679617
v 2489222.872952779 7438250.127945187 72.77163591268321
v 2489222.872952779 7438250.127945187 59.22000122070312
v 2489222.066594627 7438251.040936772 59.22000122070313
v 2489181.029990168 7438222.447192517 70.60768926707425
v 2489179.63409853 7438224.262468002 70.61705514219305
v 2489179.63409853 7438224.262468002 59.22000122070313
v 2489181.029990168 7438222.447192517 59.22000122070312
v 2489219.827807929 7438253.575782379 70.73016928806244
v 2489221.249579814 7438251.965994264 71.68332587032477
v 2489221.249579814 7438251.965994264 59.22000122070312
v 2489219.827807929 7438253.575782379 59.22000122070312
v 2489195.089996338 7438233.63999939 72.10921005895469
v 2489194.924240933 7438234.441152675 72.10921005895469
v 2489194.924240933 7438234.441152675 59.22000122070312
v 2489195.089996338 7438233.63999939 59.22000122070312
v 2489181.655266349 7438240.936026986 72.10921005895469
v 2489189.603026289 7438230.898807254 72.10921005895469
v 2489189.603026289 7438230.898807254 59.22000122070312
v 2489181.655266349 7438240.936026986 59.22000122070312
v 2489211.924305627 7438262.524450017 70.92969884001072
v 2489212.724247781 7438261.618722886 70.90950372924074
v 2489212.724247781 7438261.618722886 59.22000122070313
v 2489211.924305627 7438262.524450017 59.22000122070313
v 2489208.668177423 7438247.083236945 70.22116479359148
v 2489203.308341388 7438255.350531284 70.7115914153128
v 2489203.308341388 7438255.350531284 59.22000122070312
v 2489208.668177423 7438247.083236945 59.22000122070312
v 2489181.470001221 7438241.169998169 72.10921005895469
v 2489181.655266349 7438240.936026986 72.10921005895469
v 2489181.655266349 7438240.936026986 59.22000122070312
v 2489181.470001221 7438241.169998169 59.22000122070312
v 2489174.913390242 7438235.74832864 72.10921005895469
v 2489179.253467107 7438239.337143435 72.10921005895469
v 2489179.253467107 7438239.337143435 59.22000122070312
v 2489174.913390242 7438235.74832864 59.22000122070312
v 2489207.369995117 7438214.779998779 70.84017952243374
v 2489207.447646279 7438215.978983182 70.46367840590622
v 2489207.447646279 7438215.978983182 59.22000122070312
v 2489207.369995117 7438214.779998779 59.22000122070312
v 2489254.168642364 7438149.601321313 68.35756142754563
v 2489251.733116978 7438147.670732815 68.35756142754563
v 2489251.733116978 7438147.670732815 59.22000122070312
v 2489254.168642364 7438149.601321313 59.22000122070312
v 2489203.253947597 7438223.828573827 70.28162427252403
v 2489202.64151008 7438223.392221647 70.30345325215602
v 2489202.64151008 7438223.392221647 59.22000122070312
v 2489203.253947597 7438223.828573827 59.22000122070312
v 2489194.924240933 7438234.441152675 72.10921005895469
v 2489194.664556828 7438235.696295903 72.10921005895469
v 2489194.664556828 7438235.696295903 59.22000122070312
v 2489194.924240933 7438234.441152675 59.22000122070312
v 2489250.25398365 7438207.563218304 71.02909672267562
v 2489248.510611255 7438206.091798646 71.00727622229711
v 2489248.510611255 7438206.091798646 59.22000122070312
v 2489250.25398365 7438207.563218304 59.22000122070313
v 2489210.510608879 7438264.125095131 70.96538862216693
v 2489211.924305627 7438262.524450017 70.92969884001072
v 2489211.924305627 7438262.524450017 59.22000122070313
v 2489210.510608879 7438264.125095131 59.22000122070312
v 2489239.39280123 7438213.105141505 70.70091917665279
v 2489242.420286377 7438215.485837608 70.72141040468178
v 2489242.420286377 7438215.485837608 59.22000122070312
v 2489239.39280123 7438213.105141505 59.22000122070312
v 2489226.346553787 7438244.439301577 70.92583523308907
v 2489224.67686432 7438242.854229522 70.84578801700611
v 2489224.67686432 7438242.854229522 59.22000122070312
v 2489226.346553787 7438244.439301577 59.22000122070312
v 2489203.308341388 7438255.350531284 70.7115914153128
v 2489201.505933251 7438258.130660847 70.87651230717549
v 2489201.505933251 7438258.130660847 59.22000122070312
v 2489203.308341388 7438255.350531284 59.22000122070312
v 2489210.501569968 7438264.135329354 70.96561681565041
v 2489210.510608879 7438264.125095131 70.96538862216693
v 2489210.510608879 7438264.125095131 59.22000122070312
v 2489210.501569968 7438264.135329354 59.22000122070312
v 2489216.50346226 7438235.095043468 70.45394384789896
v 2489216.305115999 7438234.906749103 70.44443485440499
v 2489216.305115999 7438234.906749103 59.22000122070312
v 2489216.50346226 7438235.095043468 59.22000122070313
v 2489239.976519392 7438198.88895972 70.90046131655797
v 2489239.76942014 7438198.714166364 70.89786920832675
v 2489239.76942014 7438198.714166364 59.22000122070312
v 2489239.976519392 7438198.88895972 59.22000122070312
v 2489205.38999939 7438241.970001221 70.69215043315313
v 2489209.570247021 7438245.294966938 70.71533735388189
v 2489209.570247021 7438245.294966938 59.22000122070312
v 2489205.38999939 7438241.970001221 59.22000122070312
v 2489265.901155206 7438158.901431457 68.35756142754563
v 2489265.689503612 7438158.7336598 68.35756142754563
v 2489265.689503612 7438158.7336598 59.22000122070312
v 2489265.901155206 7438158.901431457 59.22000122070312
v 2489256.190002441 7438165.690002441 68.35756142754563
v 2489259.499131273 7438168.282017243 68.35756142754563
v 2489259.499131273 7438168.282017243 59.22000122070312
v 2489256.190002441 7438165.690002441 59.22000122070312
v 2489230.629781507 7438212.181694591 70.21340597208673
v 2489232.165613001 7438210.442680337 70.16671775148616
v 2489232.165613001 7438210.442680337 59.22000122070312
v 2489230.629781507 7438212.181694591 59.22000122070313
v 2489227.190002441 7438245.240005493 70.96627132505516
v 2489227.121809373 7438245.175268349 70.96300205516729
v 2489227.121809373 7438245.175268349 59.22000122070312
v 2489227.190002441 7438245.240005493 59.22000122070312
v 2489225.52556161 7438247.124553286 72.10921005895469
v 2489226.775773436 7438245.709012467 71.2507142238846
v 2489226.775773436 7438245.709012467 59.22000122070312
v 2489225.52556161 7438247.124553286 59.22000122070312
v 2489253.963798344 7438210.694330334 71.07552972516635
v 2489251.06345102 7438208.24641497 71.03922822667288
v 2489251.06345102 7438208.24641497 59.22000122070312
v 2489253.963798344 7438210.694330334 59.22000122070312
v 2489244.206813648 7438216.890692894 70.73350233471778
v 2489245.036318319 7438217.542982978 70.7391167530896
v 2489245.036318319 7438217.542982978 59.22000122070312
v 2489244.206813648 7438216.890692894 59.22000122070312
v 2489218.095683665 7438236.606573433 70.5302771381395
v 2489216.50346226 7438235.095043468 70.45394384789896
v 2489216.50346226 7438235.095043468 59.22000122070313
v 2489218.095683665 7438236.606573433 59.22000122070312
v 2489233.088116727 7438209.398134025 70.21544714914518
v 2489233.370598143 7438209.07828173 70.40923631929792
v 2489233.370598143 7438209.07828173 59.22000122070312
v 2489233.088116727 7438209.398134025 59.22000122070313
v 2489244.230510349 7438202.479360684 70.9537053699172
v 2489239.976519392 7438198.88895972 70.90046131655797
v 2489239.976519392 7438198.88895972 59.22000122070312
v 2489244.230510349 7438202.479360684 59.22000122070313
v 2489270.24865436 7438162.347600368 68.35756142754563
v 2489265.901155206 7438158.901431457 68.35756142754563
v 2489265.901155206 7438158.901431457 59.22000122070312
v 2489270.24865436 7438162.347600368 59.22000122070312
v 2489259.499131273 7438168.282017243 68.35756142754563
v 2489259.711637043 7438168.448471356 68.35756142754563
v 2489259.711637043 7438168.448471356 59.22000122070312
v 2489259.499131273 7438168.282017243 59.22000122070312
v 2489201.259994507 7438258.510009766 70.89901577735567
v 2489201.303650885 7438258.540035766 70.92308749017864
v 2489201.303650885 7438258.540035766 59.22000122070312
v 2489201.259994507 7438258.510009766 59.22000122070312
v 2489188.210006714 7438213.11000061 70.81783224465453
v 2489188.062891462 7438213.301315396 70.92758632107716
v 2489188.062891462 7438213.301315396 59.22000122070312
v 2489188.210006714 7438213.11000061 59.22000122070312
v 2489213.179992676 7438231.940002441 70.74386755532963
v 2489214.246830831 7438230.732026978 70.71143640884792
v 2489214.246830831 7438230.732026978 59.22000122070313
v 2489213.179992676 7438231.940002441 59.22000122070312
v 2489202.64151008 7438223.392221647 70.30345325215602
v 2489194.39293675 7438217.515241812 70.59745538982503
v 2489194.39293675 7438217.515241812 59.22000122070312
v 2489202.64151008 7438223.392221647 59.22000122070312
v 2489207.135639422 7438220.721133918 70.71282668499869
v 2489204.312229077 7438224.118538633 70.69207793935568
v 2489204.312229077 7438224.118538633 59.22000122070312
v 2489207.135639422 7438220.721133918 59.22000122070312
v 2489213.179992676 7438231.940002441 59.22000122070312
v 2489233.740005493 7438208.660003662 59.22000122070312
v 2489248.11000061 7438219.960006714 59.22000122070312
v 2489254.479995728 7438211.130004883 59.22000122070312
v 2489226.529998779 7438187.539993286 59.22000122070312
v 2489246.330001831 7438162.300003052 59.22000122070312
v 2489252.979995728 7438167.460006714 59.22000122070312
v 2489256.190002441 7438165.690002441 59.22000122070312
v 2489264.450012207 7438172.160003662 59.22000122070312
v 2489269.320007324 7438167.990005493 59.22000122070312
v 2489271.160003662 7438163.070007324 59.22000122070312
v 2489246.029998779 7438143.149993896 59.22000122070312
v 2489208.789993286 7438187.690002441 59.22000122070312
v 2489208.399993896 7438192.199996948 59.22000122070312
v 2489212.380004883 7438196.009994507 59.22000122070312
v 2489217.669998169 7438195.369995117 59.22000122070312
v 2489218 7438197.63999939 59.22000122070312
v 2489211 7438203.910003662 59.22000122070312
v 2489204.089996338 7438199.309997559 59.22000122070312
v 2489198.539993286 7438206.190002441 59.22000122070312
v 2489207.369995117 7438214.779998779 59.22000122070312
v 2489207.710006714 7438220.029998779 59.22000122070312
v 2489204.070007324 7438224.410003662 59.22000122070312
v 2489188.210006714 7438213.11000061 59.22000122070312
v 2489172.399993896 7438233.669998169 59.22000122070312
v 2489181.470001221 7438241.169998169 59.22000122070312
v 2489189.61000061 7438230.88999939 59.22000122070312
v 2489195.089996338 7438233.63999939 59.22000122070312
v 2489194.309997559 7438237.410003662 59.22000122070312
v 2489202.600006104 7438243.449996948 59.22000122070312
v 2489205.38999939 7438241.970001221 59.22000122070312
v 2489209.740005493 7438245.429992676 59.22000122070312
v 2489201.259994507 7438258.510009766 59.22000122070312
v 2489210.100006104 7438264.589996338 59.22000122070312
v 2489227.190002441 7438245.240005493 59.22000122070312
f 142 267 274 
f 105 246 249 
f 106 250 251 
f 59 236 252 22 587 578 
f 98 277 260 
f 144 72 179 196 
f 110 243 255 
f 111 106 251 256 
f 408 83 473 474 
f 347 388 389 
f 48 349 366 367 
f 284 553 554 
f 28 48 367 368 
f 71 74 420 418 
f 225 287 288 
f 226 289 290 
f 198 199 208 209 
f 49 29 74 71 
f 50 76 75 
f 51 78 77 
f 138 39 182 183 
f 40 91 184 185 
f 70 44 186 181 
f 45 62 180 187 
f 210 211 310 311 
f 189 200 201 
f 11 190 576 577 
f 16 40 185 191 
f 44 192 186 
f 45 187 393 394 
f 89 221 258 
f 19 42 90 93 
f 98 112 118 
f 208 199 242 247 
f 121 233 275 280 
f 234 122 281 276 
f 7 8 109 108 540 541 
f 125 121 280 282 
f 281 122 397 416 
f 147 35 53 425 444 
f 104 115 114 
f 102 113 116 
f 228 229 119 525 526 
f 120 230 231 527 528 
f 232 233 121 529 530 
f 396 122 234 235 531 532 
f 119 123 533 525 
f 120 528 534 
f 121 125 535 529 
f 122 396 397 
f 264 59 578 579 
f 143 403 404 
f 167 168 497 498 
f 170 377 378 
f 171 379 380 
f 407 166 496 499 
f 168 500 497 
f 41 17 175 169 
f 21 43 172 176 
f 173 501 502 
f 163 162 351 352 
f 151 343 333 
f 154 503 504 
f 155 505 506 
f 151 158 344 343 
f 159 353 354 
f 155 160 507 505 
f 152 167 178 
f 80 137 183 182 
f 92 81 185 184 
f 82 79 181 186 
f 73 83 187 180 
f 211 213 312 310 
f 189 51 77 205 200 
f 190 84 580 576 
f 81 85 191 185 
f 86 82 186 192 
f 187 83 408 393 
f 199 198 582 583 
f 268 215 313 314 
f 215 240 316 313 
f 242 199 583 584 
f 295 318 319 66 524 536 
f 204 212 216 
f 246 105 296 297 
f 248 66 319 320 
f 53 223 419 425 
f 30 31 75 76 458 459 
f 322 77 78 32 33 300 460 461 
f 141 229 228 
f 115 104 231 230 
f 102 116 233 232 
f 118 235 234 
f 127 238 421 426 
f 68 227 239 
f 302 323 324 
f 197 242 584 581 
f 304 13 305 306 85 81 462 463 
f 97 248 320 317 
f 37 36 465 464 
f 114 115 271 272 
f 116 113 261 273 
f 60 252 236 
f 206 303 307 
f 84 586 580 
f 88 55 309 298 
f 197 207 247 242 
f 233 116 273 275 
f 98 118 234 276 277 
f 107 259 411 412 
f 139 146 264 579 585 
f 143 266 402 403 
f 214 268 314 315 
f 214 203 263 268 
f 81 92 487 462 
f 79 82 472 485 
f 250 275 273 
f 259 107 277 276 
f 137 80 469 486 
f 83 73 484 473 
f 213 326 312 
f 205 77 322 325 
f 250 106 280 275 
f 106 111 282 280 
f 370 47 574 555 
f 100 224 288 287 
f 220 95 488 489 
f 124 292 291 
f 161 294 571 575 
f 295 536 542 
f 219 245 490 491 
f 224 299 288 
f 300 65 220 489 460 
f 240 302 324 316 
f 245 218 12 304 463 490 
f 14 15 306 305 
f 244 253 23 307 303 
f 58 258 221 298 309 
f 188 311 310 
f 76 50 188 310 312 
f 239 227 262 314 313 
f 239 313 316 
f 209 208 319 318 
f 208 247 320 319 
f 322 461 492 
f 301 324 323 493 482 
f 247 207 317 320 
f 262 117 315 314 
f 76 312 326 495 458 
f 325 322 492 494 
f 290 289 328 327 
f 289 321 328 
f 301 68 239 316 324 
f 165 47 370 371 
f 331 148 372 373 
f 334 333 355 356 
f 336 335 357 358 
f 338 337 359 360 
f 340 339 361 362 
f 159 341 336 358 353 
f 337 342 363 359 
f 333 343 364 355 
f 343 344 365 364 
f 4 162 163 6 346 345 
f 329 450 452 
f 349 331 373 366 
f 5 352 351 
f 354 353 154 504 512 
f 152 356 355 
f 154 358 357 513 503 
f 360 359 155 506 514 
f 150 362 361 
f 154 353 358 
f 160 155 359 363 
f 168 167 152 355 364 
f 168 364 365 515 500 
f 367 366 516 517 
f 447 508 509 
f 519 370 555 556 
f 371 370 519 520 
f 373 372 521 522 
f 366 373 522 516 
f 38 140 376 375 
f 378 377 543 544 
f 380 379 545 546 
f 374 63 415 406 
f 38 375 382 174 547 548 
f 383 378 544 549 
f 379 384 550 545 
f 384 385 551 550 
f 386 383 549 552 
f 174 382 387 
f 388 348 129 164 389 
f 193 394 393 
f 396 532 537 
f 435 397 396 537 538 
f 399 398 127 426 436 
f 173 407 499 501 
f 401 409 440 437 
f 441 1 2 442 440 409 456 477 
f 222 132 410 391 
f 149 130 400 405 
f 330 414 413 
f 381 406 415 
f 416 397 435 443 
f 132 417 410 
f 403 402 438 439 
f 330 348 388 414 
f 135 392 390 418 420 
f 177 423 422 
f 391 410 425 419 
f 237 96 426 421 
f 350 405 400 131 428 427 
f 429 510 511 
f 128 431 430 
f 128 413 414 432 431 
f 350 427 433 
f 26 126 435 538 539 
f 96 54 436 426 
f 194 437 440 
f 441 477 481 
f 195 194 440 442 453 454 
f 126 283 443 435 
f 265 52 439 438 
f 410 417 444 425 
f 414 388 347 434 432 
f 427 428 446 445 
f 429 134 447 509 510 
f 284 430 431 449 557 553 
f 431 432 450 449 
f 433 427 445 451 
f 3 454 453 
f 432 434 452 450 
f 99 225 288 299 459 458 
f 321 461 460 
f 246 297 463 462 
f 254 467 466 
f 255 243 103 469 468 
f 57 257 470 87 
f 308 20 256 251 472 471 
f 254 108 109 9 56 457 467 
f 107 412 474 473 
f 404 403 439 476 475 
f 412 411 479 478 
f 412 478 474 
f 439 52 34 480 476 
f 72 144 483 455 
f 272 271 249 246 462 487 
f 251 250 273 261 485 472 
f 103 274 267 486 469 
f 260 277 107 473 484 
f 327 328 489 488 
f 297 296 491 490 
f 328 321 460 489 
f 297 490 463 
f 257 308 471 470 
f 321 289 226 101 492 461 
f 217 482 493 
f 270 278 99 458 495 
f 101 279 269 494 492 
f 375 376 498 497 
f 374 406 499 496 
f 382 375 497 500 
f 46 422 423 502 501 
f 153 170 378 383 504 503 
f 384 379 171 156 506 505 
f 385 384 505 507 
f 368 367 517 523 
f 406 381 46 501 499 
f 428 131 511 510 
f 446 428 510 509 
f 383 386 512 504 
f 153 503 513 
f 156 514 506 
f 387 382 500 515 
f 445 446 517 516 
f 449 519 556 557 
f 449 450 329 520 519 
f 332 522 521 
f 332 451 445 516 522 
f 446 509 508 523 517 
f 526 525 558 559 
f 528 527 560 561 
f 530 529 562 563 
f 532 531 564 565 
f 525 533 566 558 
f 291 292 534 528 561 567 
f 529 535 568 562 
f 286 536 524 
f 537 532 565 569 
f 538 537 569 570 
f 294 25 539 538 570 571 
f 541 540 572 573 
f 286 67 542 536 
f 94 41 169 544 543 
f 172 43 69 546 545 
f 10 548 547 
f 169 549 544 
f 172 545 550 
f 176 172 550 551 
f 169 175 552 549 
f 285 133 554 553 
f 369 518 556 555 
f 448 285 553 557 
f 518 448 557 556 
f 151 333 334 559 558 
f 335 336 561 560 
f 337 338 563 562 
f 339 340 395 565 564 
f 158 151 558 566 
f 336 341 18 567 561 
f 342 337 562 568 
f 395 157 569 565 
f 157 424 570 569 
f 424 293 571 570 
f 345 346 573 572 
f 27 369 555 574 
f 293 575 571 
f 182 39 577 576 
f 202 263 579 578 
f 80 182 576 580 
f 24 64 61 583 582 
f 61 241 584 583 
f 241 145 136 581 584 
f 468 469 80 580 586 
f 253 244 202 578 587 
f 263 203 585 579 
f 590 591 588 589 
f 594 595 592 593 
f 598 599 596 597 
f 602 603 600 601 
f 606 607 604 605 
f 610 611 608 609 
f 614 615 612 613 
f 618 619 616 617 
f 622 623 620 621 
f 626 627 624 625 
f 630 631 628 629 
f 634 635 632 633 
f 638 639 636 637 
f 642 643 640 641 
f 646 647 644 645 
f 650 651 648 649 
f 654 655 652 653 
f 658 659 656 657 
f 662 663 660 661 
f 666 667 664 665 
f 670 671 668 669 
f 674 675 672 673 
f 678 679 676 677 
f 682 683 680 681 
f 686 687 684 685 
f 690 691 688 689 
f 694 695 692 693 
f 698 699 696 697 
f 702 703 700 701 
f 706 707 704 705 
f 710 711 708 709 
f 714 715 712 713 
f 718 719 716 717 
f 722 723 720 721 
f 726 727 724 725 
f 730 731 728 729 
f 734 735 732 733 
f 738 739 736 737 
f 742 743 740 741 
f 746 747 744 745 
f 750 751 748 749 
f 754 755 752 753 
f 758 759 756 757 
f 762 763 760 761 
f 766 767 764 765 
f 770 771 768 769 
f 774 775 772 773 
f 778 779 776 777 
f 782 783 780 781 
f 786 787 784 785 
f 790 791 788 789 
f 794 795 792 793 
f 798 799 796 797 
f 802 803 800 801 
f 806 807 804 805 
f 810 811 808 809 
f 814 815 812 813 
f 818 819 816 817 
f 822 823 820 821 
f 826 827 824 825 
f 830 831 828 829 
f 834 835 832 833 
f 838 839 836 837 
f 842 843 840 841 
f 846 847 844 845 
f 850 851 848 849 
f 854 855 852 853 
f 858 859 856 857 
f 862 863 860 861 
f 866 867 864 865 
f 870 871 868 869 
f 874 875 872 873 
f 878 879 876 877 
f 882 883 880 881 
f 886 887 884 885 
f 890 891 888 889 
f 894 895 892 893 
f 898 899 896 897 
f 902 903 900 901 
f 906 907 904 905 
f 910 911 908 909 
f 914 915 912 913 
f 918 919 916 917 
f 922 923 920 921 
f 926 927 924 925 
f 930 931 928 929 
f 934 935 932 933 
f 938 939 936 937 
f 942 943 940 941 
f 946 947 944 945 
f 950 951 948 949 
f 954 955 952 953 
f 958 959 956 957 
f 962 963 960 961 
f 966 967 964 965 
f 970 971 968 969 
f 974 975 972 973 
f 978 979 976 977 
f 982 983 980 981 
f 986 987 984 985 
f 990 991 988 989 
f 994 995 992 993 
f 998 999 996 997 
f 1002 1003 1000 1001 
f 1006 1007 1004 1005 
f 1010 1011 1008 1009 
f 1014 1015 1012 1013 
f 1018 1019 1016 1017 
f 1022 1023 1020 1021 
f 1026 1027 1024 1025 
f 1030 1031 1028 1029 
f 1034 1035 1032 1033 
f 1038 1039 1036 1037 
f 1042 1043 1040 1041 
f 1046 1047 1044 1045 
f 1050 1051 1048 1049 
f 1054 1055 1052 1053 
f 1058 1059 1056 1057 
f 1062 1063 1060 1061 
f 1066 1067 1064 1065 
f 1070 1071 1068 1069 
f 1074 1075 1072 1073 
f 1078 1079 1076 1077 
f 1082 1083 1080 1081 
f 1086 1087 1084 1085 
f 1090 1091 1088 1089 
f 1094 1095 1092 1093 
f 1098 1099 1096 1097 
f 1102 1103 1100 1101 
f 1106 1107 1104 1105 
f 1110 1111 1108 1109 
f 1114 1115 1112 1113 
f 1118 1119 1116 1117 
f 1122 1123 1120 1121 
f 1126 1127 1124 1125 
f 1130 1131 1128 1129 
f 1134 1135 1132 1133 
f 1138 1139 1136 1137 
f 1142 1143 1140 1141 
f 1146 1147 1144 1145 
f 1150 1151 1148 1149 
f 1154 1155 1152 1153 
f 1158 1159 1156 1157 
f 1162 1163 1160 1161 
f 1166 1167 1164 1165 
f 1170 1171 1168 1169 
f 1174 1175 1172 1173 
f 1178 1179 1176 1177 
f 1182 1183 1180 1181 
f 1186 1187 1184 1185 
f 1190 1191 1188 1189 
f 1194 1195 1192 1193 
f 1198 1199 1196 1197 
f 1202 1203 1200 1201 
f 1206 1207 1204 1205 
f 1210 1211 1208 1209 
f 1214 1215 1212 1213 
f 1218 1219 1216 1217 
f 1222 1223 1220 1221 
f 1226 1227 1224 1225 
f 1230 1231 1228 1229 
f 1234 1235 1232 1233 
f 1238 1239 1236 1237 
f 1242 1243 1240 1241 
f 1246 1247 1244 1245 
f 1250 1251 1248 1249 
f 1254 1255 1252 1253 
f 1258 1259 1256 1257 
f 1262 1263 1260 1261 
f 1266 1267 1264 1265 
f 1270 1271 1268 1269 
f 1274 1275 1272 1273 
f 1278 1279 1276 1277 
f 1282 1283 1284 1285 1286 1287 1288 1289 1290 1291 1292 1293 1294 1295 1296 1297 1298 1299 1300 1301 1302 1303 1304 1305 1306 1307 1308 1309 1310 1311 1312 1313 1314 1280 1281 
