v 2489112.728257791 7438233.184839297 78.25508581966218
v 2489142.207822355 7438197.081677601 78.48512441647772
v 2489143.148032943 7438192.531373385 78.18933840208351
v 2489168.075877479 7438192.756681975 77.35595307152812
v 2489124.176039768 7438175.672464816 78.32974323899697
v 2489134.355262015 7438163.781068379 78.38305831915882
v 2489124.697870567 7438243.43099327 78.17350279276485
v 2489142.970568861 7438193.39024008 77.93537327473454
v 2489151.476178843 7438198.017065359 81.03358255678391
v 2489155.606681077 7438192.133129195 80.89946996592168
v 2489124.971046465 7438231.317176186 80.99598367160027
v 2489114.072784427 7438234.335772683 78.8293906451344
v 2489155.108744715 7438181.6142214 78.65272554936786
v 2489142.970568861 7438193.39024008 77.93537327473454
v 2489114.072784427 7438234.335772683 78.8293906451344
v 2489160.400778648 7438201.7227543 77.94096814292885
v 2489151.476178843 7438198.017065359 81.03358255678391
v 2489124.971046465 7438231.317176186 80.99598367160027
v 2489150.597612301 7438199.120865323 81.032336265124
v 2489157.430466225 7438205.192681737 77.99126318168756
v 2489125.582189881 7438242.397928923 78.53053651716061
v 2489164.710080442 7438189.864503613 78.77743820951864
v 2489156.2107073 7438191.272688614 80.87985793858421
v 2489134.35552566 7438163.781294919 78.38316001934396
v 2489136.177151017 7438175.583618559 81.00712143359327
v 2489155.482085869 7438191.393407375 81.06009100370045
v 2489156.982870055 7438200.303563934 79.12536560718694
v 2489157.744565481 7438204.825750091 78.14343130009121
v 2489155.606681077 7438192.133129195 80.89946996592168
v 2489124.52368919 7438175.981393337 78.46576391763196
v 2489155.482085869 7438191.393407375 81.06009100370045
v 2489156.2107073 7438191.272688614 80.87985793858421
v 2489155.606681077 7438192.133129195 80.89946996592168
v 2489155.482085869 7438191.393407375 81.06009100370045
v 2489150.661476288 7438199.177616192 81.06003499884828
v 2489157.430466228 7438205.19268174 78.16737272449259
v 2489164.710080442 7438189.864503613 78.77743820951864
v 2489134.35552566 7438163.781294919 78.38316001934396
v 2489136.177151017 7438175.583618559 81.00712143359327
v 2489136.177151017 7438175.583618559 81.00712143359327
v 2489124.52368919 7438175.981393337 78.46576391763196
v 2489124.971046465 7438231.317176186 80.99598367160027
v 2489125.582189881 7438242.397928923 78.53053651716061
v 2489151.371566303 7438199.80861698 80.68787540688746
v 2489152.372739947 7438196.739906305 81.00447226326406
v 2489141.586711986 7438197.842341792 78.48027769035147
v 2489151.479962164 7438199.904939802 80.7102629896473
v 2489152.372739947 7438196.739906305 81.00447226326406
v 2489151.956256397 7438198.216404054 80.86722274265826
v 2489151.537208533 7438188.162747559 81.04926690828938
v 2489137.595284231 7438166.565170345 78.42524155057781
v 2489139.53771239 7438189.323167292 78.24292336194905
v 2489151.537208533 7438188.162747559 81.04926690828938
v 2489143.357213054 7438221.633096199 78.22955959984779
v 2489114.073891077 7438234.335466163 78.82961064886786
v 2489112.728860407 7438233.184101318 78.25509052169912
v 2489114.073891077 7438234.335466163 78.82961064886786
v 2489124.698489977 7438243.430269672 78.17375287372245
v 2489124.69485518 7438243.428412057 78.1736889327405
v 2489124.695474594 7438243.427688457 78.17393901398071
v 2489125.581873601 7438242.392194591 78.53181239371506
v 2489160.39692391 7438201.721153603 77.94230393547494
v 2489157.743706422 7438204.820649858 78.14453875045926
v 2489168.07286696 7438192.754095082 77.35722451156944
v 2489143.361138391 7438221.622406795 78.23076365524902
v 2489125.581873601 7438242.392194591 78.53181239371506
v 2489157.427498634 7438205.190044673 77.99258395234254
v 2489157.427498644 7438205.190044684 78.16864089170312
v 2489144.837359804 7438193.204521311 78.37327290425335
v 2489144.837359804 7438193.204521311 78.37327290425335
v 2489154.634215361 7438181.20646552 78.64656184247607
v 2489150.396739722 7438186.396035666 80.83461798240022
v 2489148.732699622 7438188.433959553 80.39337141209062
v 2489142.389511546 7438196.202362793 78.35417155052512
v 2489149.989267643 7438186.89506035 81.04501961286917
v 2489149.989267643 7438186.89506035 81.04501961286917
v 2489146.772131885 7438193.012039398 78.82711910528637
v 2489142.738051291 7438197.724663846 78.74971927200534
v 2489119.857124865 7438224.454227312 78.31071467952577
v 2489146.772131885 7438193.012039398 78.82711910528637
v 2489151.273240323 7438187.753831692 80.99958515304499
v 2489155.275760203 7438183.078076559 78.99027385484851
v 2489150.867786069 7438188.227484507 80.89270788451427
v 2489151.176247851 7438187.867138575 81.04827649146962
v 2489151.176247851 7438187.867138575 81.04827649146962
v 2489155.926980574 7438182.317319066 78.6633536922356
v 2489150.661476288 7438199.177616192 81.06003499884828
v 2489150.597612301 7438199.120865323 81.032336265124
v 2489124.556590202 7438175.980270305 78.47293888685648
v 2489124.190800174 7438175.655221667 78.3298205481417
v 2489157.430466228 7438205.19268174 78.16737272449259
v 2489157.427498644 7438205.190044684 78.16864089170312
v 2489157.430466225 7438205.192681737 77.99126318168756
v 2489157.427498634 7438205.190044673 77.99258395234254
v 2489144.030094951 7438193.284832519 78.18390998644583
v 2489144.030094951 7438193.284832519 78.18390998644583
v 2489144.459911446 7438193.666776414 78.37032755197686
v 2489148.377733008 7438197.148234313 80.06954284651653
v 2489150.661476288 7438199.177616192 81.06003499884828
v 2489150.597612301 7438199.120865323 81.032336265124
v 2489145.454846252 7438194.55089622 78.80184502202977
v 2489124.556590202 7438175.980270305 78.47293888685648
v 2489139.568524057 7438189.320187629 78.25012934158586
v 2489151.479962164 7438199.904939802 80.7102629896473
v 2489151.371566303 7438199.80861698 80.68787540688746
v 2489112.728860407 7438233.184101318 78.25509052169912
v 2489112.728257791 7438233.184839297 78.25508581966218
v 2489112.728257791 7438233.184839297 64.56999999999999
v 2489112.728860407 7438233.184101318 64.56999999999999
v 2489142.389511546 7438196.202362793 78.35417155052512
v 2489142.207822355 7438197.081677601 78.48512441647772
v 2489142.207822355 7438197.081677601 64.56999999999999
v 2489142.389511546 7438196.202362793 64.56999999999999
v 2489139.53771239 7438189.323167292 78.24292336194905
v 2489143.148032943 7438192.531373385 78.18933840208351
v 2489143.148032943 7438192.531373385 64.56999999999999
v 2489139.53771239 7438189.323167292 64.56999999999999
v 2489160.400778648 7438201.7227543 77.94096814292885
v 2489168.075877479 7438192.756681975 77.35595307152812
v 2489168.075877479 7438192.756681975 64.56999999999999
v 2489160.400778648 7438201.7227543 64.56999999999999
v 2489124.190800174 7438175.655221667 78.3298205481417
v 2489124.176039768 7438175.672464816 78.32974323899697
v 2489124.176039768 7438175.672464816 64.56999999999998
v 2489124.190800174 7438175.655221667 64.56999999999998
v 2489134.35552566 7438163.781294919 78.38316001934396
v 2489134.355262015 7438163.781068379 78.38305831915882
v 2489134.355262015 7438163.781068379 64.56999999999999
v 2489134.35552566 7438163.781294919 64.56999999999998
v 2489124.69485518 7438243.428412057 78.1736889327405
v 2489124.697870567 7438243.43099327 78.17350279276485
v 2489124.697870567 7438243.43099327 64.56999999999999
v 2489124.69485518 7438243.428412057 64.56999999999999
v 2489112.728257791 7438233.184839297 78.25508581966218
v 2489114.072784427 7438234.335772683 78.8293906451344
v 2489114.072784427 7438234.335772683 64.56999999999999
v 2489112.728257791 7438233.184839297 64.56999999999999
v 2489155.926980574 7438182.317319066 78.6633536922356
v 2489155.108744715 7438181.6142214 78.65272554936786
v 2489155.108744715 7438181.6142214 64.56999999999999
v 2489155.926980574 7438182.317319066 64.56999999999999
v 2489143.148032943 7438192.531373385 78.18933840208351
v 2489142.970568861 7438193.39024008 77.93537327473454
v 2489142.970568861 7438193.39024008 64.56999999999999
v 2489143.148032943 7438192.531373385 64.56999999999999
v 2489157.744565481 7438204.825750091 78.14343130009121
v 2489160.400778648 7438201.7227543 77.94096814292885
v 2489160.400778648 7438201.7227543 64.56999999999999
v 2489157.744565481 7438204.825750091 64.56999999999999
v 2489124.698489977 7438243.430269672 78.17375287372245
v 2489125.582189881 7438242.397928923 78.53053651716061
v 2489125.582189881 7438242.397928923 64.56999999999999
v 2489124.698489977 7438243.430269672 64.56999999999999
v 2489168.07286696 7438192.754095082 77.35722451156944
v 2489164.710080442 7438189.864503613 78.77743820951864
v 2489164.710080442 7438189.864503613 64.56999999999999
v 2489168.07286696 7438192.754095082 64.56999999999999
v 2489157.430466228 7438205.19268174 78.16737272449259
v 2489157.744565481 7438204.825750091 78.14343130009121
v 2489157.744565481 7438204.825750091 64.56999999999999
v 2489157.430466228 7438205.19268174 64.56999999999999
v 2489124.176039768 7438175.672464816 78.32974323899697
v 2489124.52368919 7438175.981393337 78.46576391763196
v 2489124.52368919 7438175.981393337 64.56999999999999
v 2489124.176039768 7438175.672464816 64.56999999999998
v 2489137.595284231 7438166.565170345 78.42524155057781
v 2489134.35552566 7438163.781294919 78.38316001934396
v 2489134.35552566 7438163.781294919 64.56999999999998
v 2489137.595284231 7438166.565170345 64.56999999999999
v 2489142.207822355 7438197.081677601 78.48512441647772
v 2489141.586711986 7438197.842341792 78.48027769035147
v 2489141.586711986 7438197.842341792 64.56999999999999
v 2489142.207822355 7438197.081677601 64.56999999999999
v 2489154.634215361 7438181.20646552 78.64656184247607
v 2489137.595284231 7438166.565170345 78.42524155057781
v 2489137.595284231 7438166.565170345 64.56999999999999
v 2489154.634215361 7438181.20646552 64.56999999999999
v 2489124.52368919 7438175.981393337 78.46576391763196
v 2489139.53771239 7438189.323167292 78.24292336194905
v 2489139.53771239 7438189.323167292 64.56999999999999
v 2489124.52368919 7438175.981393337 64.56999999999999
v 2489125.582189881 7438242.397928923 78.53053651716061
v 2489143.357213054 7438221.633096199 78.22955959984779
v 2489143.357213054 7438221.633096199 64.56999999999999
v 2489125.582189881 7438242.397928923 64.56999999999999
v 2489119.857124865 7438224.454227312 78.31071467952577
v 2489112.728860407 7438233.184101318 78.25509052169912
v 2489112.728860407 7438233.184101318 64.56999999999999
v 2489119.857124865 7438224.454227312 64.56999999999999
v 2489124.697870567 7438243.43099327 78.17350279276485
v 2489124.698489977 7438243.430269672 78.17375287372245
v 2489124.698489977 7438243.430269672 64.56999999999999
v 2489124.697870567 7438243.43099327 64.56999999999999
v 2489114.072784427 7438234.335772683 78.8293906451344
v 2489124.69485518 7438243.428412057 78.1736889327405
v 2489124.69485518 7438243.428412057 64.56999999999999
v 2489114.072784427 7438234.335772683 64.56999999999999
v 2489168.075877479 7438192.756681975 77.35595307152812
v 2489168.07286696 7438192.754095082 77.35722451156944
v 2489168.07286696 7438192.754095082 64.56999999999999
v 2489168.075877479 7438192.756681975 64.56999999999999
v 2489155.108744715 7438181.6142214 78.65272554936786
v 2489154.634215361 7438181.20646552 78.64656184247607
v 2489154.634215361 7438181.20646552 64.56999999999999
v 2489155.108744715 7438181.6142214 64.56999999999999
v 2489142.970568861 7438193.39024008 77.93537327473454
v 2489142.389511546 7438196.202362793 78.35417155052512
v 2489142.389511546 7438196.202362793 64.56999999999999
v 2489142.970568861 7438193.39024008 64.56999999999999
v 2489141.586711986 7438197.842341792 78.48027769035147
v 2489119.857124865 7438224.454227312 78.31071467952577
v 2489119.857124865 7438224.454227312 64.56999999999999
v 2489141.586711986 7438197.842341792 64.56999999999999
v 2489164.710080442 7438189.864503613 78.77743820951864
v 2489155.926980574 7438182.317319066 78.6633536922356
v 2489155.926980574 7438182.317319066 64.56999999999999
v 2489164.710080442 7438189.864503613 64.56999999999999
v 2489134.355262015 7438163.781068379 78.38305831915882
v 2489124.190800174 7438175.655221667 78.3298205481417
v 2489124.190800174 7438175.655221667 64.56999999999998
v 2489134.355262015 7438163.781068379 64.56999999999999
v 2489143.357213054 7438221.633096199 78.22955959984779
v 2489157.430466225 7438205.192681737 77.99126318168756
v 2489157.430466225 7438205.192681737 64.56999999999999
v 2489143.357213054 7438221.633096199 64.56999999999999
v 2489143.148032943 7438192.531373385 64.56999999999999
v 2489142.207822355 7438197.081677601 64.56999999999999
v 2489112.728257791 7438233.184839297 64.56999999999999
v 2489124.697870567 7438243.43099327 64.56999999999999
v 2489168.075877479 7438192.756681975 64.56999999999999
v 2489134.355262015 7438163.781068379 64.56999999999999
v 2489124.176039768 7438175.672464816 64.56999999999999
f 9 87 88 
f 46 78 79 
f 19 35 47 44 
f 58 7 59 60 
f 17 48 49 
f 27 62 63 
f 27 29 23 22 64 62 
f 6 24 25 89 90 
f 23 29 26 
f 37 32 82 86 
f 51 71 72 
f 14 3 52 103 95 
f 17 49 104 99 
f 69 77 101 97 
f 44 47 68 67 
f 29 27 49 48 
f 39 38 51 72 75 
f 52 41 102 103 
f 49 27 63 92 104 
f 12 1 56 55 
f 21 58 60 66 
f 15 57 60 59 
f 16 28 63 62 
f 4 16 62 64 
f 54 43 61 65 
f 36 20 67 68 
f 63 28 91 92 
f 57 18 66 60 
f 32 31 50 81 82 
f 53 34 33 80 83 
f 69 97 96 
f 50 84 81 
f 53 83 85 
f 45 9 88 98 
f 72 71 13 82 81 
f 70 73 83 80 
f 75 72 81 84 
f 73 76 85 83 
f 13 86 82 
f 77 10 45 98 101 
f 30 5 90 89 
f 54 65 94 93 
f 74 8 96 97 
f 11 55 56 79 78 98 88 
f 78 101 98 
f 73 70 95 103 
f 65 61 42 100 105 
f 78 46 2 74 97 101 
f 40 76 73 103 102 
f 65 105 94 
f 108 109 106 107 
f 112 113 110 111 
f 116 117 114 115 
f 120 121 118 119 
f 124 125 122 123 
f 128 129 126 127 
f 132 133 130 131 
f 136 137 134 135 
f 140 141 138 139 
f 144 145 142 143 
f 148 149 146 147 
f 152 153 150 151 
f 156 157 154 155 
f 160 161 158 159 
f 164 165 162 163 
f 168 169 166 167 
f 172 173 170 171 
f 176 177 174 175 
f 180 181 178 179 
f 184 185 182 183 
f 188 189 186 187 
f 192 193 190 191 
f 196 197 194 195 
f 200 201 198 199 
f 204 205 202 203 
f 208 209 206 207 
f 212 213 210 211 
f 216 217 214 215 
f 220 221 218 219 
f 224 225 222 223 
f 228 229 230 231 232 226 227 
